<svg xmlns="http://www.w3.org/2000/svg" viewBox="0 0 665.13 539.59"><defs><style>.cls-1{fill:#fff;}.cls-2{fill:none;stroke:#1b214f;stroke-miterlimit:10;stroke-width:8px;}.cls-3{font-size:139.92px;fill:#18499f;font-family:IM_FELL_Double_Pica_SC, IM FELL Double Pica SC;}.cls-4{fill:#6fb4a4;}.cls-5{fill:#5aaa96;}.cls-6{fill:#5ca996;}.cls-7{fill:#62ad9b;}.cls-8{fill:#5fac9a;}.cls-9{fill:#65ac9b;}.cls-10{fill:#6cb1a0;}.cls-11{fill:#6bb3a1;}.cls-12{fill:#5ba492;}.cls-13{fill:#61af9c;}.cls-14{fill:#77b7a7;}.cls-15{fill:#71af8f;}.cls-16{fill:#84bfb1;}.cls-17{fill:#93c7ba;}.cls-18{fill:#e0efeb;}.cls-19{fill:#3884c5;}.cls-20{fill:#daeaee;}.cls-21{fill:#3584c6;}.cls-22{fill:#3088b6;}.cls-23{fill:#348f97;}.cls-24{fill:#3189b2;}.cls-25{fill:#318da9;}.cls-26{fill:#5198d2;}.cls-27{fill:#358ca6;}.cls-28{fill:#358d9f;}.cls-29{fill:#3086bb;}.cls-30{fill:#4d98c9;}.cls-31{fill:#d2e4ed;}.cls-32{fill:#2f86c3;}.cls-33{fill:#34917d;}.cls-34{fill:#36917d;}.cls-35{fill:#379088;}.cls-36{fill:#3389ba;}.cls-37{fill:#3189ae;}.cls-38{fill:#379187;}.cls-39{fill:#358f96;}.cls-40{fill:#348ca4;}.cls-41{fill:#3b8fa9;}.cls-42{fill:#359090;}.cls-43{fill:#338d9a;}.cls-44{fill:#559fa6;}.cls-45{fill:#5b9fa0;}.cls-46{fill:#3286c7;}.cls-47{fill:#5b9ed6;}.cls-48{fill:#91bee2;}.cls-49{fill:#3285c6;}</style></defs><title>Asset 7</title><g id="Layer_2" data-name="Layer 2"><g id="Layer_1-2" data-name="Layer 1"><ellipse class="cls-1" cx="324.51" cy="269.79" rx="281.6" ry="269.79"/><circle class="cls-2" cx="324.51" cy="269.79" r="244.67"/><text class="cls-3" transform="translate(154.71 204.73)">WBT</text><path class="cls-4" d="M252.8,416.3l7.06-5.44-.38-1.06c-2.06.52-4.15.92-6.16,1.57-7.59,2.46-15.06,5.29-22.74,7.41-6.5,1.79-13.18,3.63-19.85,3.93-6.12.28-12.33-1.44-18.49-2.33-6.51-.94-13-2-19.53-2.9-7.06-.92-14.14-1.78-21.23-2.43-5.28-.47-10.59-.66-15.89-.81-16.46-.46-32.93-1-49.4-1.2-15.42-.17-30.84.17-46.25,0-2.31,0-4.6-1.39-6.89-2.13v-2.16c4.28-4.22,10-3.76,15.17-4,13.22-.74,26.47-1.13,39.7-1.06,9.45,0,18.89,1.15,28.35,1.58,5.9.27,11.83.14,17.75.24,23.29.39,46.58,1,69.87,1.12,14.17.08,28.13-2.18,41.9-5.42,4.59-1.07,9-2.93,13.49-4.44-.34.39-.6,1-1,1.14-7.31,3.05-14.49,6.29-22.65,6.86-6.88.48-13.69,2.82-20.53,2.81-33.68,0-67.36-.57-101-1-1.23,0-2.44-.5-3.67-.59a44.06,44.06,0,0,0-4.74-.06c-6.24.16-12.56,1-18.7.29-3.28-.38-5.68.49-8.43,1.1-.14,3.16,1.66,3.53,3.83,3.59q18.23.51,36.45,1.08c10.36.33,20.71.71,31.07,1.08a18.86,18.86,0,0,1,2.12.25c6.48,1,12.92,2.46,19.43,2.85A168.58,168.58,0,0,1,205,421.32a19.94,19.94,0,0,0,9.06.13c8.14-1.8,16.21-3.95,24.22-6.28,5.42-1.57,10.7-3.61,16-5.56a12.29,12.29,0,0,1,9.27,0C259.78,413.73,256.65,415.64,252.8,416.3Z" transform="translate(-1.08)"/><path class="cls-5" d="M252.8,416.3c3.85-.66,7-2.57,10.79-6.7a12.29,12.29,0,0,0-9.27,0c-5.3,1.95-10.58,4-16,5.56-8,2.33-16.08,4.48-24.22,6.28a19.94,19.94,0,0,1-9.06-.13,168.58,168.58,0,0,0-33.65-5.13c-6.51-.39-12.95-1.87-19.43-2.85a18.86,18.86,0,0,0-2.12-.25c-10.36-.37-20.71-.75-31.07-1.08q-18.22-.57-36.45-1.08c-2.17-.06-4-.43-3.83-3.59,2.75-.61,5.15-1.48,8.43-1.1,6.14.71,12.46-.13,18.7-.29a44.06,44.06,0,0,1,4.74.06c1.23.09,2.44.57,3.67.59,33.68.39,67.36.93,101,1,6.84,0,13.65-2.33,20.53-2.81,8.16-.57,15.34-3.81,22.65-6.86.43-.18.69-.75,1-1.14,2.07-1.28,4.23-2.44,6.19-3.87,3.44-2.49,6.76-5.15,10-7.64-.39-7.59.93-14.52-2-21.31-3.06-7.09-8.32-11-15.41-13.65-7.7-2.85-14.54-1.82-21.53,1.94-6.18,3.33-7.42,9.51-9.06,15.19s-3.83,9.93-10.05,12c-3.93,1.28-7.24,4.48-10.83,6.82-2.09.28-4.18.54-6.26.85a70.62,70.62,0,0,1-7.85,1.21c-10.88.42-20.07-4.47-29.17-9.58l0,0,.28-2.86c4.08,1.34,7.91,2.6,11.75,3.83a3.06,3.06,0,0,0,1,0h0c.91.72,1.72,1.87,2.74,2.1,5.61,1.3,11.27,2.38,17.82,3.72l5.22-5.76c-.45-1.92-.73-3.11-1-4.3l1.07-1.1c6.81-.77,9.71-6.56,13.53-9.93.54-5.58,1-10.31,1.46-15.05,3.73-10.68,12-17.29,21.37-22.32,11.66-6.28,24.52-8.8,37.76-8.57,4,.07,8.07,1.17,12,2.14a48.42,48.42,0,0,1,25.45,14.93c6.66,7.48,10,16.43,12.21,25.92,2.42,10.23,1,20.21-2.22,30-3-3.29,2-5.78.73-9.37l-2.37.17c-1.56,3-2.61,5.07-3.67,7.11.44-7.83,2.4-16,.93-23.42a47.58,47.58,0,0,0-14.81-26.71,41.87,41.87,0,0,0-26.71-11.08c-7.08-.29-14.25.79-21.32,1.65a89.69,89.69,0,0,0-12.39,2.77,35.61,35.61,0,0,0-5.27,2.32l.11,1.37c1.93.16,3.92.67,5.8.41a39.42,39.42,0,0,1,19,2.32,34.75,34.75,0,0,1,17.83,14c6.15,9.63,7.43,20.26,5.45,30.84a59.68,59.68,0,0,1-21.18,35.73c-15,12.42-32.16,20.18-50.39,26.37a242.9,242.9,0,0,1-37.84,9.62c-3.87.65-7.76,1.26-11.67,1.66-5.28.54-9.19-2-10.17-7,2.26-.8,4.65-2.32,7.09-2.39,15.17-.47,29.33-4.84,43.57-9.68A279.87,279.87,0,0,0,238,425C243.17,422.54,247.9,419.23,252.8,416.3Z" transform="translate(-1.08)"/><path class="cls-6" d="M358.26,316.2c-3.7-2.13-7.34-4.37-11.13-6.31a26.22,26.22,0,0,0-5.29-1.52c-.25.39-.5.78-.76,1.17,2.07,2.31,4,4.71,6.22,6.91,8.15,8.18,13.1,18.15,16.88,28.9,2.95,8.39,4.74,17,3.95,25.78a153.09,153.09,0,0,1-3.64,21.56c-1.18,4.91-5.79,8.15-9.81,8.13-2.46-1.7-2.47-3.95-1.78-6.63,1.34-5.15,2.43-10.36,3.63-15.54,2.45-10.66.71-21-3-31-7.91-21.42-23.08-36.06-43.51-45.75-18.11-8.59-37.29-10.55-56.91-9.36-6.16.38-12.24,2.11-18.35,3.22-1.21.17-2.6,0-3.61.56-6.81,3.65-13.55,7.44-20.51,11.29l-5.24-2.26,2.11-3.38c5.05-6.18,12.09-9.38,19.11-12.5,14.93-6.64,30.83-7.39,46.76-6.65,15.22.71,29.72,4.86,43.89,10.52,6.05,2.42,12.82,3,19.18,4.68a125.06,125.06,0,0,1,32.9,14.59c.42.25.64.83.95,1.26l13.22,14.35-2.24,5.87c-3.67-3.65-6.39-7-9.75-9.53C367.4,321.41,362.72,319,358.26,316.2Z" transform="translate(-1.08)"/><path class="cls-7" d="M205.43,305.34l5.24,2.26c7-3.85,13.7-7.64,20.51-11.29,1-.54,2.4-.39,3.61-.56-4.53,2.37-9.36,4.31-13.51,7.22-5.19,3.66-9.82,8.12-14.69,12.23.07-1,.15-2,.26-3.42l-6.8,1.1,3.2-3.05c-.16-3-1.81-3.67-4.05-3.28a71.61,71.61,0,0,0-9.79,2.1c-1.64.53-2.93,2.14-4.38,3.26l0,0c-8.94,3.38-15.77,15.83-13.82,25.15.32,1.56.42,3.17.82,4.7,1.56,5.92,2.78,12,7.74,16.32a7.14,7.14,0,0,1,.79.11c2.24,5,6.21,8.19,10.83,10.76l6.65,7.64,3.08-1.16c.27,1.19.55,2.38,1,4.3l-5.22,5.76c-6.55-1.34-12.21-2.42-17.82-3.72-1-.23-1.83-1.38-2.74-2.1,4,.78,8,1.79,12,2.25,1.64.19,3.41-.79,5.22-1.85-17-4.09-23.87-17.38-28.15-31.61-3.24-10.79-.89-21.92,6.39-31.32a47,47,0,0,1,5.67-4.65c7.58-4.55,15.34-8.71,24.73-7.14A17.88,17.88,0,0,0,205.43,305.34Z" transform="translate(-1.08)"/><path class="cls-8" d="M94.44,431.48c1.65-.72,3.24-1.89,4.94-2.08,13.83-1.55,27.68-3,41.54-4.3,7.81-.72,15.68-1.6,23.49-1.39,11.41.32,22.8,1.56,34.19,2.45.63,0,1.23.55,1.94,1.77a41.56,41.56,0,0,1-5.76,1.13c-3.76.24-7.53.09-11.28.28-13.55.69-27.15.92-40.62,2.34A429.37,429.37,0,0,1,99,433.57a37.28,37.28,0,0,1-4.06-.43Z" transform="translate(-1.08)"/><path class="cls-9" d="M358.26,316.2c4.46,2.75,9.14,5.21,13.3,8.35,3.36,2.53,6.08,5.88,9.75,9.53l2.24-5.87-13.22-14.35c.51.15,1.15.16,1.51.49,12.18,10.93,23.7,22.42,31.59,37a18.47,18.47,0,0,1,1.08,3.5c-3.69-.83-5.46,0-7.44,3.62-2.21-3.18-4.59-6.26-6.63-9.56a97.07,97.07,0,0,0-29.83-30.64A20.75,20.75,0,0,1,358.26,316.2Z" transform="translate(-1.08)"/><path class="cls-6" d="M200.05,312.88l6.8-1.1-.26,3.42-4.22,6.35c-6.38,6.72-7.24,15-6.62,23.66a31.81,31.81,0,0,0-2.11,4.26,47.65,47.65,0,0,0-1.14,5.46l-2.87-3.74c-1.14-10.23-.67-19.76,3.93-28.57C195.35,319.19,196,314.82,200.05,312.88Z" transform="translate(-1.08)"/><path class="cls-10" d="M176.41,379.64a3.06,3.06,0,0,1-1,0c-3.84-1.23-7.67-2.49-11.75-3.83l-.28,2.86c-6.05-6.17-7-14.1-7.39-22.15-.06-1.35,1.32-2.76,2-4.15l1.41.12c.59,1.36,1.71,2.73,1.68,4.07-.27,10.36,5.08,17.06,13.67,21.8A14.24,14.24,0,0,1,176.41,379.64Z" transform="translate(-1.08)"/><path class="cls-11" d="M195.75,345.21c-.62-8.68.24-16.94,6.62-23.66a44.81,44.81,0,0,1-2,5.41,24.42,24.42,0,0,0-2.42,17.41,34.82,34.82,0,0,0,13.84,21.23c3.14-1.19,3.22-3.59,3.2-6.2,0-3.5-.77-7.22,2.23-10.07-.46,4.74-.92,9.47-1.46,15.05-3.82,3.37-6.72,9.16-13.53,9.93l.06-4.35c3.13.28,5.67-.38,6.52-4.74C202.44,360.17,198.22,353.23,195.75,345.21Z" transform="translate(-1.08)"/><path class="cls-12" d="M318.49,389.38c1.06-2,2.11-4.09,3.67-7.11l2.37-.17c1.31,3.59-3.72,6.08-.73,9.37l-.1,2.31c-3.5,5.94-7,11.86-10.46,17.82-.22.39,0,1,0,1.59l0,0-3.23-1.68,1.08-1c.3-1.35.59-2.71.88-4.06,3.74-3.95,4.14-9.23,5.62-14.08C318,391.38,318.22,390.38,318.49,389.38Z" transform="translate(-1.08)"/><path class="cls-13" d="M312,406.44c-.29,1.35-.58,2.71-.88,4.06l-1.08,1,3.23,1.68-14.43,15.26c-.6.63-1.22,1.25-1.83,1.87l-5,2.1,1.55-3.52C300.81,422.3,307.41,415.18,312,406.44Z" transform="translate(-1.08)"/><path class="cls-10" d="M163.31,378.67c9.1,5.11,18.29,10,29.17,9.58a70.62,70.62,0,0,0,7.85-1.21c2.08-.31,4.17-.57,6.26-.85-6.83,3.87-14.27,4-21.66,2.84-6.79-1.1-13.13-3.9-19.15-7.22C164.71,381.21,164.12,379.74,163.31,378.67Z" transform="translate(-1.08)"/><path class="cls-14" d="M205.43,305.34a17.88,17.88,0,0,1-3.19,0c-9.39-1.57-17.15,2.59-24.73,7.14a47,47,0,0,0-5.67,4.65c.5-.92.79-2.11,1.55-2.72,6.55-5.23,13.12-10.55,22.2-10.22,4.18.14,8.2-.24,11.95-2.22Z" transform="translate(-1.08)"/><path class="cls-15" d="M397.07,358.46c2-3.59,3.75-4.45,7.44-3.62.59,3.25.87,6.41-3.24,9.1Z" transform="translate(-1.08)"/><path class="cls-16" d="M293.61,428.92l-1.55,3.52,5-2.1c-3.84,4.37-8.32,7.45-15.67,7.5C284.72,432.61,290.06,431.93,293.61,428.92Z" transform="translate(-1.08)"/><path class="cls-13" d="M313.28,413.19c0-.54-.26-1.2,0-1.59,3.45-6,7-11.88,10.46-17.82A55.5,55.5,0,0,1,313.28,413.19Z" transform="translate(-1.08)"/><path class="cls-17" d="M202.28,370l-.06,4.35-1.07,1.1-3.08,1.16-6.65-7.64,8,5.32,2.18-3.15-3.74-3.16q-1.11-2.71-2.21-5.43Z" transform="translate(-1.08)"/><path class="cls-14" d="M192.48,357.14l-3.76-4.45c-2.76-16-3.05-18.74,10.07-43.6-5-.66-9.38,1.25-13.76,2.82,1.45-1.12,2.74-2.73,4.38-3.26a71.61,71.61,0,0,1,9.79-2.1c2.24-.39,3.89.3,4.05,3.28l-3.2,3.05c-4.1,1.94-4.7,6.31-6.49,9.74-4.6,8.81-5.07,18.34-3.93,28.57l2.87,3.74Z" transform="translate(-1.08)"/><path class="cls-14" d="M185.06,311.89a55,55,0,0,1-4,4.2c-8.15,7-9.42,16-7.26,25.67,1.26,5.6,4,10.88,6,16.3-5-4.31-6.18-10.4-7.74-16.32-.4-1.53-.5-3.14-.82-4.7C169.29,327.72,176.12,315.27,185.06,311.89Z" transform="translate(-1.08)"/><path class="cls-18" d="M180.59,358.17c1.09.88,2.24,1.7,3.26,2.65,3.09,2.87,5.65,6.32,10.17,7.42,1.54.37,2.72,2.17,4.66,3.83-.35-1.77-.58-2.95-.82-4.13l3.74,3.16-2.18,3.15-8-5.32C186.8,366.36,182.83,363.14,180.59,358.17Z" transform="translate(-1.08)"/><path class="cls-5" d="M192.48,357.14l0-2.21a47.65,47.65,0,0,1,1.14-5.46,31.81,31.81,0,0,1,2.11-4.26c2.47,8,6.69,15,13.05,20-.85,4.36-3.39,5-6.52,4.74l-6.63-7.45Q194.06,359.83,192.48,357.14Z" transform="translate(-1.08)"/><path class="cls-19" d="M499.12,470.38c-1.81-.64-3.59-1.72-5.43-1.86a125,125,0,0,1-42-10.92c0-2.13.34-4.35-.12-6.38-1.05-4.58,1.14-5.3,4.86-4.67a43.68,43.68,0,0,1,5.11.9c10.14,3,20.2,6.32,30.4,9.14,3.9,1.09,8.13,1,12.11,1.83,2.4.52,4.6,1.92,6.89,2.93-1.09,2.46-2.09,5-3.32,7.35-.36.72-1.32,1.13-2,1.68Z" transform="translate(-1.08)"/><path class="cls-20" d="M353.66,249.54c4.55-3.27,10-3.39,15.21-4.35,4.26-.78,8.54-1.44,12.81-2.16h25.86l17.25,4.28,2.14,2.21-10.64-2.23a80.94,80.94,0,0,0-39-1.11l-15.08,2.18Z" transform="translate(-1.08)"/><path class="cls-21" d="M501.47,426.11q17.32,1.77,34.65,3.53c11.56,1.16,23.13,2.21,34.67,3.5,2.8.31,5.51,1.4,8.27,2.13,0,.67,0,1.33,0,2-2.2.71-4.41,2.06-6.6,2-13-.22-26.13,0-39.07-1.36-21.7-2.22-43.3-5.43-64.92-8.37-2.8-.38-5.47-1.63-8.2-2.48-1-.64-1.89-1.63-3-1.86-4.7-1-5.86-2.48-5.61-7.63l18.33,3.3c5.07.91,10.12,1.89,15.2,2.73C490.64,424.51,496.06,425.28,501.47,426.11Z" transform="translate(-1.08)"/><path class="cls-22" d="M451.71,417.58c-.25,5.15.91,6.62,5.61,7.63,1.07.23,2,1.22,3,1.86-18.12-2.84-35.51-8.27-52.52-15l-4.48-2.14h.06a5.56,5.56,0,0,0-.11-1c-3.11-4.87-1.08-10.54,4.68-13l13.73,4.31c1.18.73,2.29,1.94,3.53,2.1,7.41.95,14.84,1.66,22.27,2.45l1.05,8.49C445.21,418,451.56,415.46,451.71,417.58Z" transform="translate(-1.08)"/><path class="cls-23" d="M376.48,400.43c-.42-.8-.84-1.59-1.27-2.38l-.78-1.89C372.56,391,370.12,386,369,380.71c-2.33-10.62-3.48-21.39-.2-32.1l1.89-3c7.24,4.34,10,9.67,9,17.05a42.14,42.14,0,0,0,0,10.1c.17,1.71,1.32,3.33,2,5,1.45,1.5,2.91,3,4.36,4.51l.77.92.25.25.82.83.17.19c-3.81,5.8-9.15,11-6.72,19.11.16.53-1.19,1.52-1.83,2.3v0l-.88-1.1a.59.59,0,0,1-.28-.73l-1-1.4h0Z" transform="translate(-1.08)"/><path class="cls-24" d="M433.39,449.84c-13.95-6.07-27.07-13.42-37.77-24.49,1.38-4.33-2.95-5-4.81-7a48,48,0,0,1,4.58-5.28c.82-.72,2.36-.61,3.57-.88l2,.14,0,0,5.39,4.44c8.1,5.72,16.19,11.47,24.32,17.15,1.57,1.11,3.31,2,5,2.94C433,440.82,429.9,444.76,433.39,449.84Z" transform="translate(-1.08)"/><path class="cls-25" d="M399,412.18c-1.21.27-2.75.16-3.57.88a48,48,0,0,0-4.58,5.28c1.86,2,6.19,2.68,4.81,7l-16.15-19.53c.64-.78,2-1.77,1.83-2.3-2.43-8.06,2.91-13.31,6.72-19.11l19.89,11.51c-5.76,2.49-7.79,8.16-4.68,13l-6.74-1.09Z" transform="translate(-1.08)"/><path class="cls-26" d="M447.44,404.78c-7.43-.79-14.86-1.5-22.27-2.45-1.24-.16-2.35-1.37-3.53-2.1,25.88,5.14,52.14,5.21,78.23,4,42.84-2,85.66-3.68,128.54-2.6a44.71,44.71,0,0,1,11.65,1.65c1.76.53,4.13,3,4.12,4.62,0,2.77-2.21,4.68-5.57,4.42a157.92,157.92,0,0,0-16.09-.91c-24.56.57-49.11,1.36-73.66,2.08l-.31-.34c4.9-.67,9.79-1.79,14.71-1.93,19.34-.57,38.68-.81,58-1.24a10.29,10.29,0,0,0,4.62-1,4.79,4.79,0,0,0,2.15-3.16c.08-.61-1.53-1.89-2.54-2.11a38.49,38.49,0,0,0-8.45-1.12c-27.57.29-55.12-.67-82.69,1.8-18.51,1.67-37.22,1.18-55.84,1.3C468.17,405.76,457.81,405.11,447.44,404.78Z" transform="translate(-1.08)"/><path class="cls-27" d="M408.55,329c-5.82,1.78-12.26,2.21-16.41,7.6l-4,2.36-3-14.76L380.89,326c7.84-9.27,17.62-13.59,29.83-11.71-2.83.94-5.09,2.21-4.34,5.89a6.82,6.82,0,0,1-.68,3.09C404.73,326.16,405.83,328,408.55,329Z" transform="translate(-1.08)"/><path class="cls-28" d="M380.89,326l4.32-1.77,3,14.76c-8.78,11.79-8.75,25.07-6.53,38.72-.71-1.66-1.86-3.28-2-5a42.14,42.14,0,0,1,0-10.1c1.06-7.38-1.71-12.71-9-17.05l-1.89,3a32.89,32.89,0,0,1,9.5-19.46l1.18-1.15-.07.08,1.1-1.42A.54.54,0,0,1,380.89,326Z" transform="translate(-1.08)"/><path class="cls-29" d="M433.39,449.84c-3.49-5.08-.41-9,2.27-13l-.06,0,1.18,1.12-.11-.08,3.35,1.17,16.39,7.48c-3.72-.63-5.91.09-4.86,4.67.46,2,.1,4.25.12,6.38Z" transform="translate(-1.08)"/><path class="cls-30" d="M451.71,417.58c-.15-2.12-6.5.38-3.22-4.31,33.36,3.83,66.71-.75,100.06-.14l.31.34c-9.62.68-19.23,1.69-28.86,1.95-19.17.52-38.35.62-57.53.89l-.36,1.16c1.06.61,2.06,1.58,3.19,1.78,5.46,1,11,1.53,16.42,2.57,6.61,1.26,13.17,2.85,19.75,4.29-5.41-.83-10.83-1.6-16.23-2.5-5.08-.84-10.13-1.82-15.2-2.73Z" transform="translate(-1.08)"/><path class="cls-31" d="M399,412.18l-2.47-4.32,6.74,1.09a5.56,5.56,0,0,1,.11,1c-1.31.28-3.49-.31-2.34,2.38Z" transform="translate(-1.08)"/><path class="cls-31" d="M406.37,416.73,401,412.29Z" transform="translate(-1.08)"/><path class="cls-31" d="M403.28,409.93l4.48,2.14Z" transform="translate(-1.08)"/><path class="cls-24" d="M440,439.07l-3.35-1.17Z" transform="translate(-1.08)"/><path class="cls-25" d="M386.78,383.14l-.77-.92Z" transform="translate(-1.08)"/><path class="cls-25" d="M387.85,384.22l-.82-.83Z" transform="translate(-1.08)"/><path class="cls-24" d="M436.78,438l-1.18-1.12Z" transform="translate(-1.08)"/><path class="cls-32" d="M464.44,381,456,377.94,453,376.55l-.22-.18-.93-.84-.16-.11-1.08-.93h0l-1.06-1.06,0,0-1.06-1.06,0,0-1.07-1.06h0l-1.09-1.07h0l-1.35-1-.44,0-.37-.25c-3.77-3.87-4.54-7.62-1.53-8.5,5.84-1.69,6.81-7.26,10.13-10.91,10.91-11.81,15.23-25.69,12.07-41.45-2.42-12-8.88-22-17.14-30.94-1.21-1.31-2.32-2.69-3.48-4-2-4.76.92-7.33,4.34-9.66h0l1.18,1.12c4,3.52,8.62,6.58,11.93,10.68,3,3.76,5,8.5,6.86,13,2.1,5,3.59,10.3,5.41,15.44,3.53,10,2.62,20,.42,30.09-2,9.18-7.38,16.1-13.85,22.42-2,1.49-2.71,3.06-.85,5.29,2.13,2.56,3.53,6,6.12,7.85,4.14,2.89,5,6.82,5.85,11.67Z" transform="translate(-1.08)"/><path class="cls-33" d="M313.87,292.8c-7.33,10-13.71,20.55-17.69,32.25a95.31,95.31,0,0,0-1.84,56.61c.83,3.11,1.57,6.25,2.24,9.41.59,2.79.64,5.6-2.72,6.65-3.1,1-5.45-.72-6.48-3.42-2.2-5.81-4.78-11.64-5.78-17.7a198.32,198.32,0,0,1-2.18-26.13c-.48-14.79,4.47-28.42,10.15-41.74,4.36-10.21,9.76-19.84,18.64-27l1.2-1.15-.08.07c5.78-1.6,8.27.4,7.75,6.16a25.44,25.44,0,0,0,0,2.62l0,0-1.1,1.14.05-.06-1.13,1.14.06-.06Z" transform="translate(-1.08)"/><path class="cls-34" d="M294.47,284.15c-7.89,7.25-16.89,13.63-23.39,22-8.39,10.77-14.79,23.11-22,34.77-.85,1.36-1.45,3-2.58,4s-3.52,2.73-4.15,2.31c-1.42-.94-3.15-3.23-2.87-4.57,1.08-5.17,2.21-10.53,4.56-15.2,9.6-19.11,21.8-36.31,39.82-48.5,5.72-3.86,12.11-6.73,18.19-10l4.19-1.26h-.06c6.33,4.65,6.13,5.18-.64,8.75C301.56,278.48,298.13,281.53,294.47,284.15Z" transform="translate(-1.08)"/><path class="cls-35" d="M341.94,325.28c-1.5,3.39-3,6.77-4.49,10.17-7.12,16.6-7.58,33.77-2.82,50.83,2.79,10,7.61,19.42,11.52,29.1,2.62,7.68,8.16,13.15,13.92,18.46l3.28,4.23c-.35,0-.7,0-1.05,0l-1-.09-3.37-2.05h0l-1.11-1.07,0,0-1.11-1.09,0,0-1.1-1.09,0,0-1.1-1.09,0,0-1.1-1.1,0,0-1.1-1.1,0,0-1.09-1.11,0,0-1.08-1.11h0l-1-1.13v0L346.08,423h0l-4.34-6.47c-6.53-8.18-10.57-17.64-13.4-27.53-3.61-12.6-5.2-25.55-3.64-38.68s5.12-25.33,12.79-36.19c2.33-.09,4.05.5,4.35,3.25.24,2.21.75,4.38,1.15,6.57l0,0Z" transform="translate(-1.08)"/><path class="cls-36" d="M452.75,349.54c-3.32,3.65-4.29,9.22-10.13,10.91-3,.88-2.24,4.63,1.53,8.5-7.67-1.38-10.09-7.2-11.19-13.76-1.34-8-3.62-15.51-9.31-21.59.8-.32,2.05-.42,2.32-1,2.92-6.08,5.69-12.23,8.5-18.36,10.15,10.55,13.52,23.48,13.06,38.12Z" transform="translate(-1.08)"/><path class="cls-37" d="M434.47,314.25c-2.81,6.13-5.58,12.28-8.5,18.36-.27.57-1.52.67-2.32,1h0l-1.43-1-1.87-.46-1.06-.68-1.13-.41-2.1-.66L408.55,329c-2.72-1-3.82-2.87-2.85-5.76a6.82,6.82,0,0,0,.68-3.09c-.75-3.68,1.51-4.95,4.34-5.89l10.78-.73.2-1.38-18.48-7.71c1.08-1.27,2.64-2.39,3.1-3.85.55-1.73.14-3.76.15-5.66A51.35,51.35,0,0,1,434.47,314.25Z" transform="translate(-1.08)"/><path class="cls-38" d="M294.47,284.15c3.66-2.62,7.09-5.67,11-7.75,6.77-3.57,7-4.1.64-8.75,4-1.7,7.95-3.74,12.1-5,5.91-1.81,12-3.08,18-4.58l1.24-1h0l6.88-.64c.61,3.43,1.25,7,1.88,10.52l0-.07-1.2,1c-8,6-16.06,12-24.06,18.11-1.39,1.06-2.6,2.36-3.89,3.55a25.44,25.44,0,0,1,0-2.62c.52-5.76-2-7.76-7.75-6.16l.81-3.46-.76-1.1Z" transform="translate(-1.08)"/><path class="cls-24" d="M448.54,263.45c-3.42,2.33-6.32,4.9-4.34,9.66-9.78-8.2-21.4-12.53-33.47-15.91-3.29-7.27-2-9.67,5.56-9.91l10.64,2.23c6.09,3.54,12.21,7,18.23,10.68A20.7,20.7,0,0,1,448.54,263.45Z" transform="translate(-1.08)"/><path class="cls-39" d="M343,324c-.4-2.19-.91-4.36-1.15-6.57-.3-2.75-2-3.34-4.35-3.25,6.74-10.28,15.75-17.5,27.81-20.59,6,.25,6,.25,7.22,8.2l-4.8,2.81c-6.43,4.31-13,8.46-19.21,13C346.31,319.19,344.82,321.8,343,324Z" transform="translate(-1.08)"/><path class="cls-40" d="M367.73,304.56l4.8-2.81c-1.22-7.95-1.22-7.95-7.22-8.2A56.69,56.69,0,0,1,406.47,295c0,1.9.4,3.93-.15,5.66-.46,1.46-2,2.58-3.1,3.85a34.38,34.38,0,0,1-5.3-.57c-8.87-2.36-17.68-1.86-26.51.23A31.87,31.87,0,0,1,367.73,304.56Z" transform="translate(-1.08)"/><path class="cls-41" d="M416.29,247.29c-7.51.24-8.85,2.64-5.56,9.91l-38.69.88c2.68-.69,5.35-1.44,8-2,4.69-1.05,6.53-4.92,3.41-8.33-1.2-1.31-4.11-1.06-6.24-1.53A80.94,80.94,0,0,1,416.29,247.29Z" transform="translate(-1.08)"/><path class="cls-42" d="M346.23,266.88c-.63-3.55-1.27-7.09-1.88-10.52l-6.88.64,16.19-7.46,8.52-1.18c3.52,1.39,4,4.45,4.44,7.69.59,4.52-4.29,2-5.36,4.35Z" transform="translate(-1.08)"/><path class="cls-43" d="M361.26,260.4c1.07-2.32,5.95.17,5.36-4.35-.43-3.24-.92-6.3-4.44-7.69l15.08-2.18c2.13.47,5,.22,6.24,1.53,3.12,3.41,1.28,7.28-3.41,8.33-2.7.6-5.37,1.35-8,2Z" transform="translate(-1.08)"/><path class="cls-44" d="M361.31,438l1,.09h1.05l-3.28-4.23.08-1.24,14.06,11.69c-1.67,2.95-3.87,2.48-5.78,1-2.94-2.22-5.62-4.8-8.4-7.23Z" transform="translate(-1.08)"/><path class="cls-45" d="M360.15,432.6l-.08,1.24c-5.76-5.31-11.3-10.78-13.92-18.46Z" transform="translate(-1.08)"/><path class="cls-45" d="M341.75,416.54l4.34,6.47Z" transform="translate(-1.08)"/><path class="cls-38" d="M306.2,267.65,302,268.91Z" transform="translate(-1.08)"/><path class="cls-45" d="M346.08,423l2.21,3.18Z" transform="translate(-1.08)"/><path class="cls-45" d="M361.31,438l-1.28.1-2.09-2.15Z" transform="translate(-1.08)"/><path class="cls-25" d="M376.48,400.43l.79,2.15Z" transform="translate(-1.08)"/><path class="cls-25" d="M374.43,396.16l.78,1.89Z" transform="translate(-1.08)"/><path class="cls-25" d="M377.27,402.57l1,1.4Z" transform="translate(-1.08)"/><path class="cls-38" d="M316,290.56l1.1-1.14Z" transform="translate(-1.08)"/><path class="cls-25" d="M378.58,404.7l.88,1.1Z" transform="translate(-1.08)"/><path class="cls-42" d="M337.47,257l-1.24,1Z" transform="translate(-1.08)"/><path class="cls-42" d="M345.05,267.79l1.2-1Z" transform="translate(-1.08)"/><path class="cls-38" d="M309.41,280.6l-1.2,1.15Z" transform="translate(-1.08)"/><path class="cls-38" d="M314.94,291.64l1.13-1.14Z" transform="translate(-1.08)"/><path class="cls-38" d="M313.87,292.8l1.13-1.22Z" transform="translate(-1.08)"/><path class="cls-39" d="M341.94,325.28l1.08-1.37Z" transform="translate(-1.08)"/><path class="cls-45" d="M348.3,426.2l1,1.13Z" transform="translate(-1.08)"/><path class="cls-45" d="M349.3,427.32l1.08,1.11Z" transform="translate(-1.08)"/><path class="cls-45" d="M350.36,428.41l1.09,1.11Z" transform="translate(-1.08)"/><path class="cls-45" d="M351.42,429.5l1.1,1.1Z" transform="translate(-1.08)"/><path class="cls-45" d="M352.5,430.58l1.1,1.1Z" transform="translate(-1.08)"/><path class="cls-45" d="M353.58,431.66l1.1,1.09Z" transform="translate(-1.08)"/><path class="cls-27" d="M380.47,326.66l-1.1,1.42Z" transform="translate(-1.08)"/><path class="cls-27" d="M379.44,328l-1.18,1.15Z" transform="translate(-1.08)"/><path class="cls-45" d="M355.74,433.8l1.11,1.09Z" transform="translate(-1.08)"/><path class="cls-45" d="M356.83,434.87l1.11,1.07Z" transform="translate(-1.08)"/><path class="cls-45" d="M354.66,432.73l1.1,1.09Z" transform="translate(-1.08)"/><path class="cls-46" d="M464.44,381h7.13c-.89-4.85-1.71-8.78-5.85-11.67-2.59-1.82-4-5.29-6.12-7.85-1.86-2.23-1.13-3.8.85-5.29v4.83c15.34-4.2,23.27-14.93,28.45-28.16,1.87-4.78,2.74-10,4-15,1.6-6.47.67-12.69-1.95-18.75-1-2.24-1.67-4.61-2.67-6.84-3-6.6-9-9.22-15.19-11.8-3.05-1.26-5.61-3.68-8.39-5.58l.67-1.76a28.65,28.65,0,0,1,5,0c13.36,2.44,22.45,10,27,22.88a75,75,0,0,1,2.55,39.73c-.94,4.82-4.62,9.1-7.05,13.63-.43.79-.88,1.56-1.32,2.34L484,361.54l-16.45,7.3a9.34,9.34,0,0,0,2.27,1.52c9.94,3.54,21.86-.64,28.81-10.06,1.27-1.71,2.47-3.47,3.71-5.21l3.33-4.41,1.64.81a26.74,26.74,0,0,1-.39,5.17c-1,3.53-2.24,7-3.38,10.47-5.31,8.81-14.28,11.82-23.41,13.79C475.13,382,469.68,381.06,464.44,381Z" transform="translate(-1.08)"/><path class="cls-47" d="M503.54,367.13c1.14-3.49,2.42-6.94,3.38-10.47a26.74,26.74,0,0,0,.39-5.17l-1.64-.81-3.33,4.41c.74-4.17,1.44-8.35,2.22-12.51.48-2.52,1.07-5,1.69-7.87C513.43,339.8,511.47,357.7,503.54,367.13Z" transform="translate(-1.08)"/><path class="cls-48" d="M484,361.54l7.51-9.75C490.75,356.38,488.6,359.9,484,361.54Z" transform="translate(-1.08)"/><path class="cls-36" d="M453,376.55l2.93,1.39Z" transform="translate(-1.08)"/><path class="cls-36" d="M416.07,330.39l2.1.66Z" transform="translate(-1.08)"/><path class="cls-36" d="M450.65,374.49l1.08.93Z" transform="translate(-1.08)"/><path class="cls-36" d="M451.89,375.53l.93.84Z" transform="translate(-1.08)"/><path class="cls-36" d="M446.3,370.19l1.09,1.07Z" transform="translate(-1.08)"/><path class="cls-36" d="M445,369.17l1.35,1Z" transform="translate(-1.08)"/><path class="cls-36" d="M422.23,332.6l1.43,1Z" transform="translate(-1.08)"/><path class="cls-24" d="M449.68,264.56l-1.18-1.12Z" transform="translate(-1.08)"/><path class="cls-36" d="M419.3,331.46l1.06.68Z" transform="translate(-1.08)"/><path class="cls-36" d="M447.4,371.26l1.07,1.06Z" transform="translate(-1.08)"/><path class="cls-36" d="M448.49,372.34l1.06,1.06Z" transform="translate(-1.08)"/><path class="cls-36" d="M449.57,373.42l1.06,1.06Z" transform="translate(-1.08)"/><path class="cls-49" d="M548.55,413.13c-33.35-.61-66.7,4-100.06.14l-1.05-8.49c10.37.33,20.73,1,31.1.91,18.62-.12,37.33.37,55.84-1.3,27.57-2.47,55.12-1.51,82.69-1.8a38.49,38.49,0,0,1,8.45,1.12c1,.22,2.62,1.5,2.54,2.11a4.79,4.79,0,0,1-2.15,3.16,10.29,10.29,0,0,1-4.62,1c-19.35.43-38.69.67-58,1.24C558.34,411.34,553.45,412.46,548.55,413.13Z" transform="translate(-1.08)"/><path class="cls-45" d="M363.35,438.07H362.3C362.65,438.06,363,438.06,363.35,438.07Z" transform="translate(-1.08)"/><path class="cls-19" d="M521.15,498.22c-1.81-.64-3.59-1.72-5.43-1.86a125.42,125.42,0,0,1-42-10.92c0-2.13.34-4.35-.12-6.38-1.05-4.58,1.14-5.31,4.86-4.67a43.68,43.68,0,0,1,5.11.9c10.14,3,20.2,6.31,30.4,9.14,3.9,1.09,8.13.95,12.11,1.82,2.4.53,4.6,1.93,6.89,2.94-1.09,2.46-2.09,5-3.32,7.35-.36.71-1.32,1.13-2,1.68Z" transform="translate(-1.08)"/><path class="cls-20" d="M375.69,277.37c4.55-3.26,10-3.39,15.21-4.34,4.26-.78,8.54-1.44,12.81-2.16h25.86l17.25,4.28,2.14,2.21-10.64-2.23a80.94,80.94,0,0,0-39-1.11l-15.08,2.18Z" transform="translate(-1.08)"/><path class="cls-21" d="M523.5,454q17.32,1.77,34.65,3.53c11.56,1.16,23.13,2.2,34.67,3.5,2.8.31,5.51,1.4,8.27,2.13,0,.66,0,1.33,0,2-2.2.71-4.41,2-6.6,2-13-.22-26.13,0-39.07-1.36-21.7-2.22-43.3-5.43-64.92-8.37-2.8-.38-5.47-1.63-8.2-2.48-1-.64-1.89-1.63-3-1.86-4.7-1-5.86-2.48-5.61-7.63l18.33,3.3c5.07.91,10.12,1.89,15.2,2.73C512.67,452.35,518.09,453.12,523.5,454Z" transform="translate(-1.08)"/><path class="cls-22" d="M473.74,445.42c-.25,5.15.91,6.62,5.61,7.63,1.07.23,2,1.22,3,1.86-18.12-2.84-35.51-8.27-52.52-15l-4.48-2.14h.06a6.64,6.64,0,0,0-.1-1c-3.12-4.87-1.09-10.54,4.67-13l13.73,4.31c1.18.72,2.29,1.94,3.53,2.1,7.41.95,14.84,1.66,22.27,2.45l1,8.49C467.24,445.8,473.59,443.29,473.74,445.42Z" transform="translate(-1.08)"/><path class="cls-23" d="M398.51,428.27l-1.27-2.39-.78-1.88c-1.87-5.14-4.31-10.16-5.47-15.45-2.33-10.62-3.48-21.39-.2-32.11l1.89-3c7.24,4.34,10,9.66,8.95,17a42.13,42.13,0,0,0,0,10.1c.17,1.72,1.32,3.33,2,5l4.36,4.52.77.92.25.25.82.83.17.19c-3.81,5.8-9.15,11.05-6.72,19.11.16.53-1.19,1.52-1.83,2.3v0l-.88-1.1a.59.59,0,0,1-.28-.73l-1-1.4h0Z" transform="translate(-1.08)"/><path class="cls-24" d="M455.42,477.67c-13.95-6.07-27.07-13.41-37.77-24.48,1.38-4.34-2.95-5-4.81-7a49.11,49.11,0,0,1,4.58-5.29c.82-.71,2.36-.6,3.57-.87l2,.14,0,0,5.39,4.44c8.1,5.72,16.19,11.47,24.32,17.15,1.57,1.1,3.31,2,5,2.94C455,468.66,451.93,472.6,455.42,477.67Z" transform="translate(-1.08)"/><path class="cls-25" d="M421,440c-1.21.27-2.75.16-3.57.87a49.11,49.11,0,0,0-4.58,5.29c1.86,2,6.19,2.67,4.81,7L401.5,433.66c.64-.78,2-1.77,1.83-2.3-2.43-8.06,2.91-13.31,6.72-19.11l19.89,11.51c-5.76,2.49-7.79,8.16-4.67,13l-6.75-1.1Z" transform="translate(-1.08)"/><path class="cls-26" d="M469.47,432.62c-7.43-.79-14.86-1.5-22.27-2.45-1.24-.16-2.35-1.38-3.53-2.1,25.88,5.14,52.14,5.21,78.23,4,42.84-2,85.66-3.68,128.54-2.6a44.3,44.3,0,0,1,11.65,1.65c1.76.52,4.13,3,4.12,4.62,0,2.77-2.21,4.68-5.57,4.42a160.86,160.86,0,0,0-16.09-.92c-24.56.57-49.11,1.37-73.66,2.09l-.31-.35c4.9-.66,9.79-1.78,14.71-1.92,19.34-.57,38.68-.81,58-1.24a10.42,10.42,0,0,0,4.62-1,4.79,4.79,0,0,0,2.15-3.16c.08-.61-1.53-1.9-2.54-2.12a38.48,38.48,0,0,0-8.45-1.11c-27.57.28-55.12-.68-82.69,1.8-18.5,1.67-37.22,1.18-55.84,1.3C490.2,433.6,479.84,432.94,469.47,432.62Z" transform="translate(-1.08)"/><path class="cls-27" d="M430.58,356.87c-5.82,1.78-12.26,2.21-16.41,7.59l-4,2.37-3-14.76-4.32,1.77c7.84-9.27,17.62-13.59,29.83-11.72-2.83.95-5.09,2.21-4.34,5.9a6.82,6.82,0,0,1-.68,3.09C426.76,354,427.86,355.82,430.58,356.87Z" transform="translate(-1.08)"/><path class="cls-28" d="M402.92,353.84l4.32-1.77,3,14.76c-8.78,11.79-8.75,25.07-6.53,38.71-.71-1.66-1.86-3.27-2-5a42.13,42.13,0,0,1,0-10.1c1.06-7.38-1.71-12.7-8.95-17l-1.89,3a32.9,32.9,0,0,1,9.5-19.45l1.18-1.15-.07.08,1.1-1.42A.54.54,0,0,1,402.92,353.84Z" transform="translate(-1.08)"/><path class="cls-29" d="M455.42,477.67c-3.49-5.07-.41-9,2.27-13l-.06,0,1.18,1.12-.11-.09,3.35,1.18,16.39,7.48c-3.72-.64-5.91.09-4.86,4.67.46,2,.1,4.25.12,6.38Z" transform="translate(-1.08)"/><path class="cls-30" d="M473.74,445.42c-.15-2.13-6.5.38-3.22-4.31,33.36,3.83,66.71-.75,100.06-.15l.31.35c-9.62.67-19.23,1.69-28.86,1.95-19.17.52-38.35.62-57.53.89l-.36,1.15c1.06.62,2.06,1.59,3.19,1.79,5.46,1,11,1.53,16.42,2.57,6.61,1.26,13.17,2.84,19.75,4.29-5.41-.83-10.83-1.6-16.23-2.5-5.08-.84-10.13-1.82-15.2-2.73Z" transform="translate(-1.08)"/><path class="cls-31" d="M421,440l-2.47-4.33,6.75,1.1a6.64,6.64,0,0,1,.1,1c-1.31.27-3.49-.32-2.34,2.38Z" transform="translate(-1.08)"/><path class="cls-31" d="M428.4,444.57,423,440.13Z" transform="translate(-1.08)"/><path class="cls-31" d="M425.31,437.77l4.48,2.14Z" transform="translate(-1.08)"/><path class="cls-24" d="M462.05,466.91l-3.35-1.18Z" transform="translate(-1.08)"/><path class="cls-25" d="M408.81,411l-.77-.92Z" transform="translate(-1.08)"/><path class="cls-25" d="M409.88,412.06l-.82-.83Z" transform="translate(-1.08)"/><path class="cls-24" d="M458.81,465.82l-1.18-1.12Z" transform="translate(-1.08)"/><path class="cls-32" d="M486.47,408.87,478,405.78l-2.93-1.39-.22-.18-.93-.84-.16-.12-1.08-.92,0,0-1.06-1.06h0l-1.06-1.06,0,0-1.07-1.06h0L468.33,398h0L467,397l-.44,0-.37-.24c-3.77-3.88-4.54-7.63-1.53-8.5,5.84-1.7,6.81-7.26,10.13-10.91,10.91-11.81,15.23-25.69,12.07-41.45-2.41-12-8.88-22-17.14-30.95-1.21-1.3-2.32-2.68-3.48-4-2-4.76.92-7.33,4.34-9.66h0l1.18,1.12c4,3.51,8.62,6.58,11.93,10.68,3,3.75,5,8.5,6.86,13,2.1,5,3.59,10.3,5.41,15.44,3.53,10,2.62,20,.42,30.09-2,9.18-7.38,16.09-13.85,22.42-2,1.49-2.71,3.05-.85,5.29,2.13,2.56,3.53,6,6.12,7.84,4.14,2.9,5,6.82,5.85,11.68Z" transform="translate(-1.08)"/><path class="cls-33" d="M335.9,320.64c-7.33,10-13.71,20.54-17.69,32.25a95.31,95.31,0,0,0-1.84,56.61c.83,3.11,1.57,6.25,2.24,9.4.59,2.79.64,5.61-2.72,6.66-3.1,1-5.45-.72-6.48-3.43-2.2-5.8-4.78-11.63-5.78-17.69a198.32,198.32,0,0,1-2.18-26.13c-.48-14.79,4.47-28.42,10.15-41.74,4.36-10.21,9.76-19.84,18.65-27l1.19-1.15-.08.07c5.78-1.6,8.27.39,7.75,6.16a25.44,25.44,0,0,0,0,2.62l0,0-1.1,1.14.05-.05L337,319.48l.06-.06Z" transform="translate(-1.08)"/><path class="cls-34" d="M316.5,312c-7.89,7.25-16.89,13.63-23.39,22-8.39,10.77-14.79,23.1-22,34.77-.85,1.36-1.45,3-2.57,4s-3.53,2.73-4.16,2.31c-1.42-.94-3.15-3.23-2.87-4.58,1.08-5.16,2.21-10.52,4.56-15.19,9.6-19.12,21.8-36.31,39.82-48.5,5.72-3.86,12.11-6.73,18.19-10.05l4.19-1.26h-.06c6.33,4.65,6.13,5.18-.64,8.75C323.59,306.32,320.16,309.37,316.5,312Z" transform="translate(-1.08)"/><path class="cls-35" d="M364,353.11c-1.5,3.4-3,6.77-4.49,10.18-7.12,16.6-7.58,33.77-2.82,50.82,2.79,10,7.61,19.43,11.52,29.11,2.62,7.67,8.16,13.15,13.92,18.46l3.28,4.23c-.35,0-.7,0-1.05,0l-1-.09L380,463.77h0l-1.11-1.07,0,0-1.11-1.09,0,0-1.1-1.09,0,0-1.1-1.1,0,0-1.1-1.1,0,0-1.09-1.1,0,0-1.09-1.11,0,0-1.08-1.11h0l-1-1.13v0l-2.21-3.19v0l-4.34-6.48c-6.53-8.17-10.57-17.64-13.4-27.52-3.61-12.6-5.2-25.55-3.64-38.68s5.12-25.33,12.79-36.19c2.33-.09,4.05.5,4.35,3.25.24,2.2.76,4.38,1.15,6.57l0-.05Z" transform="translate(-1.08)"/><path class="cls-36" d="M474.78,377.38c-3.32,3.65-4.29,9.21-10.13,10.91-3,.87-2.24,4.62,1.53,8.5-7.67-1.38-10.09-7.2-11.19-13.76-1.34-8-3.62-15.51-9.31-21.59.8-.32,2.05-.42,2.32-1,2.92-6.08,5.69-12.23,8.5-18.36,10.15,10.55,13.52,23.48,13.06,38.12Z" transform="translate(-1.08)"/><path class="cls-37" d="M456.5,342.09c-2.81,6.13-5.58,12.28-8.5,18.36-.27.57-1.52.67-2.32,1h0l-1.43-1-1.87-.46-1.06-.69-1.13-.4-2.1-.66-7.52-1.36c-2.72-1.05-3.82-2.87-2.85-5.76a6.82,6.82,0,0,0,.68-3.09c-.75-3.69,1.51-4.95,4.34-5.9l10.78-.72.21-1.38-18.49-7.71c1.08-1.27,2.64-2.39,3.1-3.85.55-1.73.14-3.76.15-5.66A51.3,51.3,0,0,1,456.5,342.09Z" transform="translate(-1.08)"/><path class="cls-38" d="M316.5,312c3.66-2.62,7.09-5.67,11-7.75,6.77-3.57,7-4.1.64-8.75,4-1.71,7.95-3.75,12.1-5,5.91-1.82,12-3.08,18-4.58l1.24-1h0l6.88-.64c.61,3.43,1.25,7,1.88,10.52l0-.07-1.2,1c-8,6-16.06,12-24.06,18.11-1.39,1.05-2.6,2.36-3.89,3.55a25.44,25.44,0,0,1,0-2.62c.52-5.77-2-7.76-7.75-6.16l.81-3.46-.76-1.11Z" transform="translate(-1.08)"/><path class="cls-24" d="M470.57,291.29c-3.42,2.33-6.32,4.9-4.34,9.66-9.78-8.2-21.4-12.53-33.47-15.91-3.29-7.27-1.94-9.67,5.56-9.91L449,277.36c6.09,3.54,12.21,7,18.23,10.67A20.77,20.77,0,0,1,470.57,291.29Z" transform="translate(-1.08)"/><path class="cls-39" d="M365,351.8c-.39-2.19-.91-4.37-1.15-6.57-.3-2.75-2-3.34-4.35-3.25,6.74-10.29,15.75-17.5,27.81-20.59,6,.24,6,.24,7.22,8.2l-4.8,2.81c-6.43,4.31-13,8.46-19.21,13C368.34,347,366.85,349.64,365,351.8Z" transform="translate(-1.08)"/><path class="cls-40" d="M389.76,332.4l4.8-2.81c-1.22-8-1.22-8-7.22-8.2a56.64,56.64,0,0,1,41.16,1.41c0,1.9.4,3.93-.15,5.66-.46,1.46-2,2.58-3.1,3.85a34.38,34.38,0,0,1-5.3-.57c-8.87-2.36-17.68-1.86-26.51.23A31.87,31.87,0,0,1,389.76,332.4Z" transform="translate(-1.08)"/><path class="cls-41" d="M438.32,275.13c-7.5.24-8.85,2.64-5.56,9.91l-38.69.88c2.68-.69,5.35-1.44,8.05-2,4.69-1.05,6.54-4.92,3.42-8.33-1.21-1.31-4.12-1.06-6.25-1.53A80.94,80.94,0,0,1,438.32,275.13Z" transform="translate(-1.08)"/><path class="cls-42" d="M368.26,294.72c-.63-3.55-1.27-7.09-1.88-10.52l-6.88.64,16.19-7.47,8.52-1.17c3.52,1.39,4,4.45,4.44,7.69.59,4.52-4.29,2-5.36,4.35Z" transform="translate(-1.08)"/><path class="cls-43" d="M383.29,288.24c1.07-2.32,5.95.17,5.36-4.35-.43-3.24-.92-6.3-4.44-7.69L399.29,274c2.13.47,5,.22,6.25,1.53,3.12,3.41,1.27,7.28-3.42,8.33-2.7.6-5.37,1.35-8.05,2Z" transform="translate(-1.08)"/><path class="cls-44" d="M383.34,465.83l1,.09h1.05l-3.28-4.23.08-1.24,14.06,11.69c-1.67,2.94-3.87,2.48-5.78,1-2.94-2.23-5.62-4.8-8.4-7.23Z" transform="translate(-1.08)"/><path class="cls-45" d="M382.18,460.44l-.08,1.24c-5.76-5.31-11.3-10.79-13.92-18.46Z" transform="translate(-1.08)"/><path class="cls-45" d="M363.78,444.37l4.34,6.48Z" transform="translate(-1.08)"/><path class="cls-38" d="M328.23,295.49,324,296.75Z" transform="translate(-1.08)"/><path class="cls-45" d="M368.11,450.83l2.21,3.19C369.58,453,368.84,451.9,368.11,450.83Z" transform="translate(-1.08)"/><path class="cls-45" d="M383.34,465.83l-1.28.1L380,463.77Z" transform="translate(-1.08)"/><path class="cls-25" d="M398.51,428.27l.79,2.15Z" transform="translate(-1.08)"/><path class="cls-25" d="M396.46,424l.78,1.88Z" transform="translate(-1.08)"/><path class="cls-25" d="M399.3,430.41l1,1.4Z" transform="translate(-1.08)"/><path class="cls-38" d="M338.05,318.39l1.1-1.14Z" transform="translate(-1.08)"/><path class="cls-25" d="M400.61,432.54l.88,1.1Z" transform="translate(-1.08)"/><path class="cls-42" d="M359.5,284.84l-1.24,1Z" transform="translate(-1.08)"/><path class="cls-42" d="M367.08,295.63l1.2-1Z" transform="translate(-1.08)"/><path class="cls-38" d="M331.44,308.44l-1.19,1.15Z" transform="translate(-1.08)"/><path class="cls-38" d="M337,319.48l1.13-1.14Z" transform="translate(-1.08)"/><path class="cls-38" d="M335.9,320.64l1.13-1.22Z" transform="translate(-1.08)"/><path class="cls-39" d="M364,353.11l1.08-1.36Z" transform="translate(-1.08)"/><path class="cls-45" d="M370.33,454l1,1.13Z" transform="translate(-1.08)"/><path class="cls-45" d="M371.33,455.16l1.08,1.11Z" transform="translate(-1.08)"/><path class="cls-45" d="M372.39,456.25l1.09,1.11Z" transform="translate(-1.08)"/><path class="cls-45" d="M373.46,457.34l1.09,1.1Z" transform="translate(-1.08)"/><path class="cls-45" d="M374.53,458.42l1.1,1.1Z" transform="translate(-1.08)"/><path class="cls-45" d="M375.61,459.49l1.1,1.1Z" transform="translate(-1.08)"/><path class="cls-27" d="M402.5,354.5l-1.1,1.42Z" transform="translate(-1.08)"/><path class="cls-27" d="M401.47,355.84,400.29,357Z" transform="translate(-1.08)"/><path class="cls-45" d="M377.77,461.64l1.11,1.09Z" transform="translate(-1.08)"/><path class="cls-45" d="M378.86,462.71l1.11,1.07Z" transform="translate(-1.08)"/><path class="cls-45" d="M376.69,460.57l1.1,1.09Z" transform="translate(-1.08)"/><path class="cls-46" d="M486.47,408.87h7.13c-.89-4.86-1.71-8.78-5.85-11.68-2.59-1.81-4-5.28-6.12-7.84-1.86-2.24-1.13-3.8.85-5.29v4.83c15.34-4.2,23.27-14.94,28.45-28.16,1.87-4.79,2.74-10,4-15,1.6-6.47.67-12.69-1.95-18.75-1-2.24-1.67-4.61-2.67-6.84-3-6.6-9-9.22-15.19-11.8-3.05-1.26-5.61-3.69-8.39-5.58l.67-1.76a28.65,28.65,0,0,1,5,0c13.36,2.44,22.45,10,27,22.88a75,75,0,0,1,2.55,39.73c-.94,4.82-4.62,9.1-7,13.63-.43.78-.88,1.56-1.32,2.34L506,389.38l-16.45,7.3a9.34,9.34,0,0,0,2.27,1.52c9.94,3.54,21.86-.64,28.81-10.06,1.27-1.71,2.48-3.47,3.71-5.21l3.33-4.41,1.64.81a26.74,26.74,0,0,1-.39,5.17c-1,3.53-2.24,7-3.38,10.47-5.31,8.81-14.27,11.82-23.41,13.79C497.16,409.84,491.71,408.9,486.47,408.87Z" transform="translate(-1.08)"/><path class="cls-47" d="M525.57,395c1.14-3.49,2.42-6.94,3.38-10.47a26.74,26.74,0,0,0,.39-5.17l-1.64-.81-3.33,4.41c.74-4.17,1.44-8.35,2.22-12.51.48-2.52,1.07-5,1.69-7.88C535.46,367.63,533.5,385.54,525.57,395Z" transform="translate(-1.08)"/><path class="cls-48" d="M506,389.38l7.51-9.75C512.78,384.22,510.63,387.74,506,389.38Z" transform="translate(-1.08)"/><path class="cls-36" d="M475.07,404.39l2.93,1.39Z" transform="translate(-1.08)"/><path class="cls-36" d="M438.1,358.23l2.1.66Z" transform="translate(-1.08)"/><path class="cls-36" d="M472.68,402.33l1.08.92Z" transform="translate(-1.08)"/><path class="cls-36" d="M473.92,403.37l.93.84Z" transform="translate(-1.08)"/><path class="cls-36" d="M468.33,398l1.09,1.07Z" transform="translate(-1.08)"/><path class="cls-36" d="M467,397l1.35,1Z" transform="translate(-1.08)"/><path class="cls-36" d="M444.26,360.44l1.43,1Z" transform="translate(-1.08)"/><path class="cls-24" d="M471.71,292.4l-1.18-1.12Z" transform="translate(-1.08)"/><path class="cls-36" d="M441.33,359.29l1.06.69Z" transform="translate(-1.08)"/><path class="cls-36" d="M469.43,399.1l1.07,1.06Z" transform="translate(-1.08)"/><path class="cls-36" d="M470.52,400.18l1.06,1.06Z" transform="translate(-1.08)"/><path class="cls-36" d="M471.6,401.25l1.06,1.06C472.3,402,472,401.61,471.6,401.25Z" transform="translate(-1.08)"/><path class="cls-49" d="M570.58,441c-33.35-.6-66.7,4-100.06.15l-1-8.49c10.37.32,20.73,1,31.1.91,18.62-.12,37.34.37,55.84-1.3,27.57-2.48,55.12-1.52,82.69-1.8a38.48,38.48,0,0,1,8.45,1.11c1,.22,2.62,1.51,2.54,2.12a4.79,4.79,0,0,1-2.15,3.16,10.42,10.42,0,0,1-4.62,1c-19.35.43-38.69.67-58,1.24C580.37,439.18,575.48,440.3,570.58,441Z" transform="translate(-1.08)"/><path class="cls-45" d="M385.38,465.91h-1.05C384.68,465.9,385,465.9,385.38,465.91Z" transform="translate(-1.08)"/><path class="cls-4" d="M220.83,400.32l7.06-5.44-.39-1.06c-2.05.52-4.14.92-6.15,1.57-7.59,2.46-15.07,5.29-22.74,7.41-6.5,1.8-13.18,3.63-19.86,3.93-6.11.28-12.32-1.44-18.48-2.33-6.51-.94-13-2-19.53-2.9-7.06-.92-14.14-1.78-21.23-2.43-5.28-.47-10.59-.66-15.89-.81-16.47-.46-32.93-1-49.41-1.2-15.41-.17-30.83.17-46.25,0-2.3,0-4.59-1.39-6.88-2.13V392.8c4.27-4.22,10-3.76,15.17-4.05,13.21-.74,26.47-1.13,39.7-1.06,9.45,0,18.89,1.15,28.34,1.58,5.91.27,11.84.15,17.76.24,23.29.39,46.58,1,69.87,1.12,14.16.08,28.13-2.18,41.9-5.41,4.59-1.08,9-2.94,13.49-4.44-.34.38-.6,1-1,1.13-7.31,3-14.49,6.29-22.66,6.86-6.87.48-13.68,2.82-20.52,2.82-33.68,0-67.36-.58-101-1-1.22,0-2.43-.5-3.66-.59a44.28,44.28,0,0,0-4.75-.06c-6.24.16-12.55,1-18.69.29-3.28-.38-5.69.5-8.43,1.1-.14,3.16,1.66,3.53,3.83,3.59q18.23.51,36.45,1.08c10.35.33,20.71.71,31.06,1.08a19.31,19.31,0,0,1,2.13.25c6.47,1,12.92,2.46,19.43,2.85a168.58,168.58,0,0,1,33.65,5.13,19.94,19.94,0,0,0,9.06.13c8.14-1.8,16.21-4,24.22-6.28,5.42-1.57,10.7-3.61,16-5.56a12.36,12.36,0,0,1,9.28,0C227.8,397.75,224.67,399.66,220.83,400.32Z" transform="translate(-1.08)"/><path class="cls-5" d="M220.83,400.32c3.84-.66,7-2.57,10.79-6.7a12.36,12.36,0,0,0-9.28,0c-5.29,1.95-10.57,4-16,5.56-8,2.33-16.08,4.48-24.22,6.28a19.94,19.94,0,0,1-9.06-.13,168.58,168.58,0,0,0-33.65-5.13c-6.51-.39-13-1.87-19.43-2.85a19.31,19.31,0,0,0-2.13-.25c-10.35-.37-20.71-.75-31.06-1.08q-18.22-.57-36.45-1.08c-2.17-.06-4-.43-3.83-3.59,2.74-.6,5.15-1.48,8.43-1.1,6.14.71,12.45-.13,18.69-.29a44.28,44.28,0,0,1,4.75.06c1.23.09,2.44.57,3.66.59,33.69.39,67.37.93,101.05,1,6.84,0,13.65-2.34,20.52-2.82,8.17-.57,15.35-3.81,22.66-6.86.43-.18.69-.75,1-1.13,2.07-1.29,4.23-2.45,6.19-3.88,3.44-2.49,6.76-5.15,10-7.63-.39-7.6.92-14.53-2-21.32-3.06-7.09-8.32-11-15.41-13.65-7.7-2.85-14.54-1.82-21.54,1.94-6.17,3.33-7.42,9.51-9.05,15.19s-3.83,9.93-10.05,12c-3.93,1.28-7.24,4.48-10.83,6.82-2.09.28-4.18.54-6.26.85a71,71,0,0,1-7.85,1.21c-10.88.42-20.08-4.47-29.17-9.58l0,0,.28-2.87c4.08,1.34,7.91,2.6,11.75,3.83a3.06,3.06,0,0,0,1,0h0c.91.72,1.72,1.87,2.74,2.1,5.61,1.3,11.26,2.38,17.82,3.72l5.22-5.75-1-4.31,1.08-1.1c6.8-.77,9.7-6.56,13.52-9.93.54-5.58,1-10.31,1.46-15,3.73-10.68,12.05-17.29,21.38-22.32,11.65-6.28,24.52-8.8,37.75-8.57,4,.07,8.08,1.17,12,2.14a48.36,48.36,0,0,1,25.44,14.93c6.67,7.48,10,16.43,12.22,25.92,2.42,10.23,1,20.21-2.22,30-3-3.29,2-5.78.73-9.37l-2.37.17c-1.56,3-2.61,5.07-3.67,7.11.43-7.83,2.39-16,.92-23.42a47.5,47.5,0,0,0-14.8-26.71,41.87,41.87,0,0,0-26.72-11.08c-7.07-.28-14.24.79-21.32,1.65a90.35,90.35,0,0,0-12.39,2.77,36,36,0,0,0-5.26,2.32l.1,1.37c1.94.16,3.92.67,5.8.41a39.39,39.39,0,0,1,19,2.32,34.71,34.71,0,0,1,17.83,14c6.16,9.63,7.43,20.26,5.45,30.84a59.77,59.77,0,0,1-21.17,35.74C219,416,201.76,423.78,183.53,430a243.18,243.18,0,0,1-37.84,9.62c-3.87.65-7.76,1.26-11.67,1.66-5.28.54-9.19-1.95-10.18-7,2.27-.8,4.66-2.32,7.1-2.4,15.17-.47,29.33-4.84,43.57-9.68A279.87,279.87,0,0,0,206.07,409C211.2,406.56,215.92,403.25,220.83,400.32Z" transform="translate(-1.08)"/><path class="cls-6" d="M326.29,300.22c-3.7-2.12-7.34-4.36-11.13-6.31a26.41,26.41,0,0,0-5.29-1.52l-.76,1.17c2.07,2.31,4,4.72,6.22,6.91,8.14,8.18,13.09,18.15,16.88,28.9,3,8.39,4.73,17,4,25.78a151.69,151.69,0,0,1-3.65,21.56c-1.17,4.91-5.78,8.16-9.8,8.13-2.46-1.7-2.48-3.95-1.78-6.63,1.34-5.14,2.43-10.36,3.62-15.54,2.46-10.66.72-21-3-31-7.91-21.42-23.08-36.06-43.51-45.75-18.11-8.59-37.29-10.55-56.92-9.36-6.15.38-12.23,2.11-18.34,3.22-1.21.17-2.6,0-3.61.56-6.82,3.65-13.55,7.44-20.51,11.3l-5.25-2.27,2.12-3.38c5-6.18,12.09-9.38,19.11-12.5,14.93-6.64,30.83-7.38,46.76-6.65,15.21.71,29.71,4.86,43.89,10.52,6.05,2.42,12.82,3,19.18,4.68a125.06,125.06,0,0,1,32.9,14.59c.42.25.63.83.94,1.26l13.23,14.35-2.24,5.87c-3.67-3.65-6.4-7-9.75-9.53C335.43,305.43,330.74,303,326.29,300.22Z" transform="translate(-1.08)"/><path class="cls-7" d="M173.45,289.36l5.25,2.27c7-3.86,13.69-7.65,20.51-11.3,1-.54,2.4-.39,3.61-.56-4.53,2.37-9.37,4.31-13.51,7.22-5.2,3.66-9.82,8.12-14.69,12.23.07-1,.15-2,.25-3.42l-6.79,1.1c1.11-1.06,2.22-2.12,3.2-3-.17-3-1.82-3.68-4.05-3.29a71.75,71.75,0,0,0-9.8,2.1c-1.64.53-2.93,2.14-4.38,3.26l0,0c-8.94,3.38-15.78,15.83-13.82,25.15.32,1.56.42,3.17.82,4.7,1.56,5.92,2.78,12,7.73,16.32a7,7,0,0,1,.8.11c2.23,5,6.21,8.19,10.83,10.77l6.65,7.63,3.07-1.16,1,4.31L165,369.49c-6.56-1.34-12.21-2.42-17.82-3.72-1-.23-1.83-1.38-2.74-2.1,4,.79,8,1.79,12,2.26,1.63.18,3.4-.79,5.22-1.86-17-4.09-23.88-17.38-28.15-31.61-3.24-10.78-.89-21.92,6.38-31.32a47.78,47.78,0,0,1,5.67-4.65c7.59-4.55,15.34-8.71,24.74-7.14A17.77,17.77,0,0,0,173.45,289.36Z" transform="translate(-1.08)"/><path class="cls-8" d="M62.47,415.5c1.64-.72,3.24-1.89,4.94-2.08,13.83-1.55,27.67-3,41.53-4.3,7.82-.72,15.69-1.6,23.5-1.39,11.41.32,22.8,1.56,34.19,2.45.63.05,1.23.55,1.93,1.78a42.74,42.74,0,0,1-5.76,1.12c-3.75.24-7.52.09-11.28.28-13.54.69-27.14.92-40.61,2.34A429.57,429.57,0,0,1,67,417.59a37.1,37.1,0,0,1-4-.43Z" transform="translate(-1.08)"/><path class="cls-9" d="M326.29,300.22c4.45,2.75,9.14,5.21,13.3,8.35,3.35,2.53,6.08,5.88,9.75,9.53l2.24-5.87-13.23-14.35a4.06,4.06,0,0,1,1.52.49c12.17,10.93,23.7,22.42,31.59,37a18.47,18.47,0,0,1,1.08,3.5c-3.7-.83-5.46,0-7.44,3.62-2.22-3.18-4.59-6.26-6.63-9.56a97.07,97.07,0,0,0-29.83-30.64A20.75,20.75,0,0,1,326.29,300.22Z" transform="translate(-1.08)"/><path class="cls-6" d="M168.08,296.9l6.79-1.1-.25,3.42-4.22,6.35c-6.38,6.72-7.24,15-6.63,23.66a31.74,31.74,0,0,0-2.1,4.26,47.65,47.65,0,0,0-1.14,5.46l-2.87-3.74c-1.14-10.23-.68-19.76,3.92-28.57C163.38,303.21,164,298.84,168.08,296.9Z" transform="translate(-1.08)"/><path class="cls-10" d="M144.44,363.66a3.06,3.06,0,0,1-1,0c-3.84-1.23-7.67-2.49-11.75-3.83l-.28,2.87c-6.06-6.18-7-14.11-7.39-22.16-.06-1.35,1.31-2.76,2-4.15l1.42.12c.59,1.36,1.71,2.73,1.68,4.07-.27,10.36,5.07,17.06,13.67,21.8A15.12,15.12,0,0,1,144.44,363.66Z" transform="translate(-1.08)"/><path class="cls-11" d="M163.77,329.23c-.61-8.68.25-16.94,6.63-23.66a44,44,0,0,1-2,5.42,24.39,24.39,0,0,0-2.41,17.4,34.73,34.73,0,0,0,13.84,21.23c3.14-1.19,3.22-3.59,3.2-6.2,0-3.5-.78-7.22,2.22-10.07-.46,4.74-.92,9.47-1.46,15-3.82,3.37-6.72,9.16-13.52,9.93l.06-4.35c3.13.28,5.66-.38,6.52-4.74C170.47,344.19,166.25,337.25,163.77,329.23Z" transform="translate(-1.08)"/><path class="cls-12" d="M286.52,373.4c1.06-2,2.11-4.09,3.67-7.11l2.37-.17c1.3,3.59-3.72,6.08-.73,9.37l-.1,2.31c-3.5,5.94-7,11.86-10.46,17.82-.23.39,0,1.06,0,1.59l0,0-3.23-1.68,1.09-1c.29-1.35.59-2.71.88-4.06,3.74-3.94,4.14-9.23,5.61-14.08C286,375.4,286.24,374.4,286.52,373.4Z" transform="translate(-1.08)"/><path class="cls-13" d="M280.07,390.46c-.29,1.35-.59,2.71-.88,4.06l-1.09,1,3.23,1.68q-7.2,7.63-14.42,15.26c-.6.63-1.22,1.25-1.83,1.87l-5,2.1,1.55-3.51C268.84,406.32,275.44,399.2,280.07,390.46Z" transform="translate(-1.08)"/><path class="cls-10" d="M131.34,362.69c9.09,5.11,18.29,10,29.17,9.58a71,71,0,0,0,7.85-1.21c2.08-.31,4.17-.57,6.26-.85-6.84,3.87-14.27,4-21.67,2.84-6.78-1.1-13.12-3.9-19.14-7.22C132.74,365.23,132.15,363.76,131.34,362.69Z" transform="translate(-1.08)"/><path class="cls-14" d="M173.45,289.36a17.77,17.77,0,0,1-3.18,0c-9.4-1.57-17.15,2.59-24.74,7.14a47.78,47.78,0,0,0-5.67,4.65c.51-.92.8-2.11,1.55-2.72,6.56-5.23,13.13-10.54,22.21-10.22,4.17.14,8.19-.24,11.95-2.22Z" transform="translate(-1.08)"/><path class="cls-15" d="M365.1,342.48c2-3.58,3.74-4.45,7.44-3.62.59,3.25.87,6.41-3.24,9.1Z" transform="translate(-1.08)"/><path class="cls-16" d="M261.64,413l-1.55,3.51,5-2.1c-3.85,4.37-8.33,7.45-15.67,7.5C252.74,416.63,258.09,416,261.64,413Z" transform="translate(-1.08)"/><path class="cls-13" d="M281.31,397.21c0-.53-.27-1.2,0-1.59,3.45-6,7-11.88,10.46-17.82A55.5,55.5,0,0,1,281.31,397.21Z" transform="translate(-1.08)"/><path class="cls-17" d="M170.31,354l-.06,4.35-1.08,1.1-3.07,1.16L159.45,353l8,5.31,2.18-3.15L165.89,352l-2.22-5.43Q167,350.25,170.31,354Z" transform="translate(-1.08)"/><path class="cls-14" d="M160.5,341.16l-3.75-4.45c-2.76-16-3.05-18.74,10.06-43.6-5-.66-9.37,1.25-13.76,2.82,1.45-1.12,2.74-2.73,4.38-3.26a71.75,71.75,0,0,1,9.8-2.1c2.23-.39,3.88.3,4.05,3.29-1,.92-2.09,2-3.2,3-4.11,1.94-4.7,6.31-6.5,9.74-4.6,8.81-5.06,18.34-3.92,28.57l2.87,3.74Z" transform="translate(-1.08)"/><path class="cls-14" d="M153.09,295.91a55,55,0,0,1-4,4.2c-8.15,6.95-9.43,16-7.26,25.67,1.26,5.6,4,10.88,6,16.3-4.95-4.31-6.17-10.4-7.73-16.32-.4-1.53-.5-3.14-.82-4.7C137.31,311.74,144.15,299.29,153.09,295.91Z" transform="translate(-1.08)"/><path class="cls-18" d="M148.62,342.19c1.09.88,2.24,1.7,3.26,2.65,3.09,2.87,5.65,6.32,10.17,7.42,1.53.37,2.72,2.17,4.66,3.83-.35-1.77-.59-2.95-.82-4.13l3.74,3.16-2.18,3.15-8-5.31C154.83,350.38,150.85,347.16,148.62,342.19Z" transform="translate(-1.08)"/><path class="cls-5" d="M160.5,341.16l0-2.21a47.65,47.65,0,0,1,1.14-5.46,31.74,31.74,0,0,1,2.1-4.26c2.48,8,6.7,15,13.06,20-.86,4.36-3.39,5-6.52,4.74q-3.31-3.72-6.64-7.45Q162.1,343.85,160.5,341.16Z" transform="translate(-1.08)"/><path class="cls-4" d="M220.83,449.71l7.06-5.44-.39-1.06c-2.05.52-4.14.92-6.15,1.57-7.59,2.45-15.07,5.28-22.74,7.41-6.5,1.79-13.18,3.62-19.86,3.93-6.11.28-12.32-1.44-18.48-2.33-6.51-.94-13-2-19.53-2.9-7.06-.93-14.14-1.78-21.23-2.43-5.28-.48-10.59-.66-15.89-.81-16.47-.46-32.93-1-49.41-1.2-15.41-.17-30.83.17-46.25,0-2.3,0-4.59-1.39-6.88-2.14v-2.15c4.27-4.22,10-3.76,15.17-4.05,13.21-.75,26.47-1.13,39.7-1.07,9.45.05,18.89,1.15,28.34,1.59,5.91.27,11.84.14,17.76.24,23.29.39,46.58,1,69.87,1.12,14.16.08,28.13-2.19,41.9-5.42,4.59-1.08,9-2.93,13.49-4.44-.34.39-.6,1-1,1.14-7.31,3.05-14.49,6.28-22.66,6.85-6.87.48-13.68,2.83-20.52,2.82-33.68,0-67.36-.57-101-1-1.22,0-2.43-.5-3.66-.59-1.58-.11-3.17-.1-4.75-.06-6.24.17-12.55,1-18.69.29-3.28-.38-5.69.5-8.43,1.11-.14,3.16,1.66,3.53,3.83,3.59q18.23.51,36.45,1.08c10.35.33,20.71.71,31.06,1.08a17.17,17.17,0,0,1,2.13.25c6.47,1,12.92,2.46,19.43,2.85a169.29,169.29,0,0,1,33.65,5.12,19.8,19.8,0,0,0,9.06.14c8.14-1.8,16.21-3.95,24.22-6.28,5.42-1.57,10.7-3.61,16-5.56a12.31,12.31,0,0,1,9.28,0C227.8,447.14,224.67,449,220.83,449.71Z" transform="translate(-1.08)"/><path class="cls-5" d="M220.83,449.71c3.84-.67,7-2.57,10.79-6.7a12.31,12.31,0,0,0-9.28,0c-5.29,2-10.57,4-16,5.56-8,2.33-16.08,4.48-24.22,6.28a19.8,19.8,0,0,1-9.06-.14,169.29,169.29,0,0,0-33.65-5.12c-6.51-.39-13-1.87-19.43-2.85a17.17,17.17,0,0,0-2.13-.25c-10.35-.37-20.71-.75-31.06-1.08q-18.22-.59-36.45-1.08c-2.17-.06-4-.43-3.83-3.59,2.74-.61,5.15-1.49,8.43-1.11,6.14.71,12.45-.12,18.69-.29,1.58,0,3.17-.05,4.75.06,1.23.09,2.44.58,3.66.59,33.69.4,67.37.94,101.05,1,6.84,0,13.65-2.34,20.52-2.82,8.17-.57,15.35-3.8,22.66-6.85.43-.18.69-.75,1-1.14,2.07-1.28,4.23-2.44,6.19-3.87,3.44-2.49,6.76-5.15,10-7.64-.39-7.59.92-14.52-2-21.31-3.06-7.09-8.32-11-15.41-13.66-7.7-2.84-14.54-1.81-21.54,1.95-6.17,3.33-7.42,9.51-9.05,15.19s-3.83,9.93-10.05,12c-3.93,1.28-7.24,4.48-10.83,6.82-2.09.28-4.18.54-6.26.85a71,71,0,0,1-7.85,1.21c-10.88.42-20.08-4.47-29.17-9.58l0,0,.28-2.86c4.08,1.33,7.91,2.6,11.75,3.83a3.33,3.33,0,0,0,1,0h0c.91.72,1.72,1.87,2.74,2.1,5.61,1.3,11.26,2.38,17.82,3.72l5.22-5.76c-.45-1.93-.73-3.11-1-4.3l1.08-1.1c6.8-.77,9.7-6.56,13.52-9.93.54-5.58,1-10.32,1.46-15.05,3.73-10.68,12.05-17.3,21.38-22.32,11.65-6.28,24.52-8.8,37.75-8.57,4,.07,8.08,1.17,12,2.13a48.44,48.44,0,0,1,25.44,14.94c6.67,7.48,10,16.43,12.22,25.91,2.42,10.24,1,20.22-2.22,30.05-3-3.29,2-5.78.73-9.37l-2.37.17-3.67,7.11c.43-7.83,2.39-16,.92-23.42a47.47,47.47,0,0,0-14.8-26.71,41.94,41.94,0,0,0-26.72-11.09c-7.07-.28-14.24.79-21.32,1.66A88.89,88.89,0,0,0,212.21,366a36,36,0,0,0-5.26,2.32l.1,1.37c1.94.16,3.92.67,5.8.41a39.39,39.39,0,0,1,19,2.32,34.71,34.71,0,0,1,17.83,14c6.16,9.63,7.43,20.25,5.45,30.84A59.75,59.75,0,0,1,233.92,453c-15,12.42-32.16,20.17-50.39,26.36A242.1,242.1,0,0,1,145.69,489c-3.87.65-7.76,1.26-11.67,1.66-5.28.54-9.19-1.95-10.18-7,2.27-.8,4.66-2.32,7.1-2.39,15.17-.47,29.33-4.84,43.57-9.68a279.87,279.87,0,0,0,31.56-13.16C211.2,455.94,215.92,452.64,220.83,449.71Z" transform="translate(-1.08)"/><path class="cls-6" d="M326.29,349.6c-3.7-2.12-7.34-4.36-11.13-6.31a27.8,27.8,0,0,0-5.29-1.52l-.76,1.17c2.07,2.31,4,4.72,6.22,6.92,8.14,8.18,13.09,18.15,16.88,28.9,3,8.38,4.73,17,4,25.78a151.69,151.69,0,0,1-3.65,21.56,10.66,10.66,0,0,1-9.8,8.13c-2.46-1.7-2.48-4-1.78-6.63,1.34-5.15,2.43-10.36,3.62-15.54,2.46-10.67.72-21-3-31-7.91-21.42-23.08-36.06-43.51-45.75-18.11-8.59-37.29-10.55-56.92-9.36-6.15.38-12.23,2.11-18.34,3.22-1.21.17-2.6,0-3.61.56-6.82,3.64-13.55,7.44-20.51,11.29l-5.25-2.26,2.12-3.38c5-6.19,12.09-9.38,19.11-12.5,14.93-6.64,30.83-7.39,46.76-6.65,15.21.71,29.71,4.86,43.89,10.52,6.05,2.42,12.82,3,19.18,4.67a125.42,125.42,0,0,1,32.9,14.6c.42.25.63.83.94,1.26l13.23,14.35-2.24,5.87c-3.67-3.65-6.4-7-9.75-9.54C335.43,354.81,330.74,352.36,326.29,349.6Z" transform="translate(-1.08)"/><path class="cls-7" d="M173.45,338.75,178.7,341c7-3.85,13.69-7.65,20.51-11.29,1-.54,2.4-.39,3.61-.56-4.53,2.37-9.37,4.31-13.51,7.22-5.2,3.66-9.82,8.12-14.69,12.23.07-1,.15-2,.25-3.42l-6.79,1.1,3.2-3.05c-.17-3-1.82-3.67-4.05-3.28a70.28,70.28,0,0,0-9.8,2.1c-1.64.53-2.93,2.14-4.38,3.26l0,0c-8.94,3.38-15.78,15.84-13.82,25.16.32,1.55.42,3.16.82,4.7,1.56,5.91,2.78,12,7.73,16.32a7,7,0,0,1,.8.1c2.23,5,6.21,8.2,10.83,10.77L166.1,410l3.07-1.16c.28,1.19.56,2.37,1,4.3L165,418.88c-6.56-1.34-12.21-2.42-17.82-3.72-1-.23-1.83-1.38-2.74-2.1,4,.78,8,1.79,12,2.25,1.63.19,3.4-.79,5.22-1.86-17-4.09-23.88-17.38-28.15-31.6-3.24-10.79-.89-21.92,6.38-31.32a47.78,47.78,0,0,1,5.67-4.65c7.59-4.56,15.34-8.71,24.74-7.14A18.75,18.75,0,0,0,173.45,338.75Z" transform="translate(-1.08)"/><path class="cls-8" d="M62.47,464.89c1.64-.72,3.24-1.89,4.94-2.08,13.83-1.55,27.67-3,41.53-4.3,7.82-.72,15.69-1.61,23.5-1.39,11.41.32,22.8,1.55,34.19,2.45.63.05,1.23.55,1.93,1.77a42.78,42.78,0,0,1-5.76,1.13c-3.75.23-7.52.09-11.28.28-13.54.69-27.14.92-40.61,2.34A429.57,429.57,0,0,1,67,467a37.1,37.1,0,0,1-4-.43Z" transform="translate(-1.08)"/><path class="cls-9" d="M326.29,349.6c4.45,2.76,9.14,5.21,13.3,8.35,3.35,2.53,6.08,5.89,9.75,9.54l2.24-5.87-13.23-14.35c.52.15,1.16.16,1.52.49,12.17,10.92,23.7,22.42,31.59,37a18.38,18.38,0,0,1,1.08,3.49c-3.7-.82-5.46,0-7.44,3.63-2.22-3.18-4.59-6.27-6.63-9.56a97,97,0,0,0-29.83-30.64A19.9,19.9,0,0,1,326.29,349.6Z" transform="translate(-1.08)"/><path class="cls-6" d="M168.08,346.29l6.79-1.1-.25,3.42L170.4,355c-6.38,6.72-7.24,15-6.63,23.66a31.16,31.16,0,0,0-2.1,4.26,47.65,47.65,0,0,0-1.14,5.46l-2.87-3.74c-1.14-10.23-.68-19.76,3.92-28.57C163.38,352.59,164,348.23,168.08,346.29Z" transform="translate(-1.08)"/><path class="cls-10" d="M144.44,413.05a3.33,3.33,0,0,1-1,0c-3.84-1.23-7.67-2.5-11.75-3.83l-.28,2.86c-6.06-6.18-7-14.1-7.39-22.15-.06-1.35,1.31-2.76,2-4.15l1.42.12c.59,1.36,1.71,2.73,1.68,4.07-.27,10.36,5.07,17.06,13.67,21.8A15.12,15.12,0,0,1,144.44,413.05Z" transform="translate(-1.08)"/><path class="cls-11" d="M163.77,378.62c-.61-8.68.25-16.94,6.63-23.66a43.23,43.23,0,0,1-2,5.41A24.42,24.42,0,0,0,166,377.78,34.73,34.73,0,0,0,179.81,399c3.14-1.19,3.22-3.59,3.2-6.21,0-3.49-.78-7.21,2.22-10.06-.46,4.73-.92,9.47-1.46,15.05-3.82,3.37-6.72,9.16-13.52,9.93l.06-4.35c3.13.27,5.66-.39,6.52-4.74C170.47,393.58,166.25,386.64,163.77,378.62Z" transform="translate(-1.08)"/><path class="cls-12" d="M286.52,422.79l3.67-7.11,2.37-.17c1.3,3.59-3.72,6.08-.73,9.37l-.1,2.31c-3.5,5.93-7,11.86-10.46,17.82-.23.39,0,1.05,0,1.59l0,0-3.23-1.68,1.09-1c.29-1.36.59-2.71.88-4.06,3.74-4,4.14-9.23,5.61-14.08C286,424.78,286.24,423.78,286.52,422.79Z" transform="translate(-1.08)"/><path class="cls-13" d="M280.07,439.85c-.29,1.35-.59,2.7-.88,4.06l-1.09,1,3.23,1.68q-7.2,7.63-14.42,15.26c-.6.63-1.22,1.24-1.83,1.87l-5,2.1,1.55-3.52C268.84,455.71,275.44,448.58,280.07,439.85Z" transform="translate(-1.08)"/><path class="cls-10" d="M131.34,412.08c9.09,5.11,18.29,10,29.17,9.58a71,71,0,0,0,7.85-1.21c2.08-.31,4.17-.57,6.26-.85-6.84,3.87-14.27,4-21.67,2.84-6.78-1.1-13.12-3.9-19.14-7.23C132.74,414.62,132.15,413.14,131.34,412.08Z" transform="translate(-1.08)"/><path class="cls-14" d="M173.45,338.75a18.75,18.75,0,0,1-3.18,0c-9.4-1.57-17.15,2.58-24.74,7.14a47.78,47.78,0,0,0-5.67,4.65c.51-.92.8-2.12,1.55-2.72,6.56-5.23,13.13-10.55,22.21-10.23,4.17.15,8.19-.23,11.95-2.21Z" transform="translate(-1.08)"/><path class="cls-15" d="M365.1,391.87c2-3.59,3.74-4.45,7.44-3.63.59,3.26.87,6.42-3.24,9.1Z" transform="translate(-1.08)"/><path class="cls-16" d="M261.64,462.33l-1.55,3.52,5-2.1c-3.85,4.37-8.33,7.44-15.67,7.5C252.74,466,258.09,465.34,261.64,462.33Z" transform="translate(-1.08)"/><path class="cls-13" d="M281.31,446.6c0-.54-.27-1.2,0-1.59,3.45-6,7-11.89,10.46-17.82A55.5,55.5,0,0,1,281.31,446.6Z" transform="translate(-1.08)"/><path class="cls-17" d="M170.31,403.37l-.06,4.35-1.08,1.1L166.1,410l-6.65-7.64,8,5.32,2.18-3.15-3.74-3.16-2.22-5.44Z" transform="translate(-1.08)"/><path class="cls-14" d="M160.5,390.55l-3.75-4.45c-2.76-16-3.05-18.75,10.06-43.6-5-.67-9.37,1.25-13.76,2.82,1.45-1.12,2.74-2.73,4.38-3.26a70.28,70.28,0,0,1,9.8-2.1c2.23-.39,3.88.3,4.05,3.28l-3.2,3.05c-4.11,1.94-4.7,6.3-6.5,9.74-4.6,8.81-5.06,18.34-3.92,28.57l2.87,3.74Z" transform="translate(-1.08)"/><path class="cls-14" d="M153.09,345.29a53.24,53.24,0,0,1-4,4.2c-8.15,7-9.43,16.05-7.26,25.68,1.26,5.6,4,10.88,6,16.3-4.95-4.31-6.17-10.41-7.73-16.32-.4-1.54-.5-3.15-.82-4.7C137.31,361.13,144.15,348.67,153.09,345.29Z" transform="translate(-1.08)"/><path class="cls-18" d="M148.62,391.57c1.09.88,2.24,1.71,3.26,2.66,3.09,2.87,5.65,6.32,10.17,7.42,1.53.37,2.72,2.17,4.66,3.83-.35-1.77-.59-3-.82-4.13l3.74,3.16-2.18,3.15-8-5.32C154.83,399.77,150.85,396.55,148.62,391.57Z" transform="translate(-1.08)"/><path class="cls-5" d="M160.5,390.55l0-2.21a47.65,47.65,0,0,1,1.14-5.46,31.16,31.16,0,0,1,2.1-4.26c2.48,8,6.7,15,13.06,20-.86,4.35-3.39,5-6.52,4.74l-6.64-7.46Z" transform="translate(-1.08)"/><path class="cls-19" d="M494.25,498.22c-1.81-.64-3.59-1.72-5.44-1.86a125.42,125.42,0,0,1-42-10.92c0-2.13.34-4.35-.12-6.38-1.05-4.58,1.14-5.31,4.86-4.67a43.31,43.31,0,0,1,5.11.9c10.14,3,20.21,6.31,30.4,9.14,3.9,1.09,8.13.95,12.11,1.82,2.4.53,4.61,1.93,6.9,2.94-1.09,2.46-2.1,5-3.32,7.35-.37.71-1.33,1.13-2,1.68Z" transform="translate(-1.08)"/><path class="cls-20" d="M348.79,277.37c4.55-3.26,10-3.39,15.2-4.34,4.26-.78,8.54-1.44,12.81-2.16h25.86l17.25,4.28,2.15,2.21-10.64-2.23a81,81,0,0,0-39-1.11l-15.07,2.18Z" transform="translate(-1.08)"/><path class="cls-21" d="M496.59,454q17.32,1.77,34.66,3.53c11.55,1.16,23.12,2.2,34.67,3.5,2.8.31,5.51,1.4,8.26,2.13,0,.66,0,1.33,0,2-2.2.71-4.41,2-6.59,2-13-.22-26.14,0-39.08-1.36-21.7-2.22-43.3-5.43-64.92-8.37-2.79-.38-5.47-1.63-8.2-2.48-1-.64-1.89-1.63-3-1.86-4.7-1-5.86-2.48-5.6-7.63l18.32,3.3c5.07.91,10.13,1.89,15.2,2.73C485.76,452.35,491.18,453.12,496.59,454Z" transform="translate(-1.08)"/><path class="cls-22" d="M446.84,445.42c-.26,5.15.9,6.62,5.6,7.63,1.07.23,2,1.22,3,1.86-18.12-2.84-35.5-8.27-52.51-15l-4.48-2.14h0a5.54,5.54,0,0,0-.1-1c-3.12-4.87-1.09-10.54,4.67-13l13.74,4.31c1.17.72,2.28,1.94,3.52,2.1,7.41.95,14.85,1.66,22.27,2.45l1.05,8.49C440.33,445.8,446.68,443.29,446.84,445.42Z" transform="translate(-1.08)"/><path class="cls-23" d="M371.6,428.27l-1.26-2.39-.79-1.88c-1.86-5.14-4.31-10.16-5.47-15.45-2.32-10.62-3.47-21.39-.2-32.11l1.89-3c7.24,4.34,10,9.66,9,17a43.19,43.19,0,0,0,0,10.1c.17,1.72,1.33,3.33,2,5l4.36,4.52.77.92.26.25.82.83.16.19c-3.81,5.8-9.15,11.05-6.72,19.11.17.53-1.18,1.52-1.83,2.3v0l-.89-1.1a.6.6,0,0,1-.28-.73l-1-1.4h0Z" transform="translate(-1.08)"/><path class="cls-24" d="M428.52,477.67c-13.95-6.07-27.08-13.41-37.78-24.48,1.38-4.34-2.95-5-4.8-7a47,47,0,0,1,4.58-5.29c.81-.71,2.35-.6,3.56-.87l2,.14,0,0,5.39,4.44c8.1,5.72,16.19,11.47,24.32,17.15,1.57,1.1,3.31,2,5,2.94C428.1,468.66,425,472.6,428.52,477.67Z" transform="translate(-1.08)"/><path class="cls-25" d="M394.08,440c-1.21.27-2.75.16-3.56.87a47,47,0,0,0-4.58,5.29c1.85,2,6.18,2.67,4.8,7l-16.15-19.53c.65-.78,2-1.77,1.83-2.3-2.43-8.06,2.91-13.31,6.72-19.11L403,423.76c-5.76,2.49-7.79,8.16-4.67,13l-6.74-1.1C392.79,437.75,393.43,438.89,394.08,440Z" transform="translate(-1.08)"/><path class="cls-26" d="M442.56,432.62c-7.42-.79-14.86-1.5-22.27-2.45-1.24-.16-2.35-1.38-3.52-2.1,25.88,5.14,52.13,5.21,78.23,4,42.84-2,85.65-3.68,128.53-2.6a44.3,44.3,0,0,1,11.65,1.65c1.77.52,4.13,3,4.12,4.62,0,2.77-2.21,4.68-5.57,4.42a160.52,160.52,0,0,0-16.09-.92c-24.56.57-49.11,1.37-73.66,2.09l-.31-.35c4.91-.66,9.79-1.78,14.71-1.92,19.34-.57,38.69-.81,58-1.24a10.44,10.44,0,0,0,4.63-1,4.82,4.82,0,0,0,2.14-3.16c.08-.61-1.52-1.9-2.53-2.12a38.65,38.65,0,0,0-8.46-1.11c-27.56.28-55.12-.68-82.69,1.8-18.5,1.67-37.22,1.18-55.84,1.3C463.3,433.6,452.93,432.94,442.56,432.62Z" transform="translate(-1.08)"/><path class="cls-27" d="M403.67,356.87c-5.82,1.78-12.26,2.21-16.41,7.59l-4,2.37c-1-4.88-2-9.75-3-14.76L376,353.84c7.83-9.27,17.61-13.59,29.82-11.72-2.82.95-5.08,2.21-4.34,5.9a6.7,6.7,0,0,1-.68,3.09C399.85,354,401,355.82,403.67,356.87Z" transform="translate(-1.08)"/><path class="cls-28" d="M376,353.84l4.32-1.77c1,5,2,9.88,3,14.76-8.78,11.79-8.75,25.07-6.53,38.71-.7-1.66-1.86-3.27-2-5a43.19,43.19,0,0,1,0-10.1c1.06-7.38-1.71-12.7-9-17l-1.89,3a32.9,32.9,0,0,1,9.5-19.45l1.18-1.15-.06.08,1.09-1.42A.54.54,0,0,1,376,353.84Z" transform="translate(-1.08)"/><path class="cls-29" d="M428.52,477.67c-3.49-5.07-.42-9,2.27-13l-.07,0,1.18,1.12-.11-.09,3.35,1.18,16.39,7.48c-3.72-.64-5.91.09-4.86,4.67.46,2,.11,4.25.12,6.38Z" transform="translate(-1.08)"/><path class="cls-30" d="M446.84,445.42c-.16-2.13-6.51.38-3.23-4.31,33.36,3.83,66.71-.75,100.06-.15l.31.35c-9.62.67-19.23,1.69-28.85,1.95-19.18.52-38.36.62-57.54.89l-.36,1.15c1.06.62,2.06,1.59,3.2,1.79,5.45,1,11,1.53,16.41,2.57,6.62,1.26,13.17,2.84,19.75,4.29-5.41-.83-10.83-1.6-16.23-2.5-5.07-.84-10.13-1.82-15.2-2.73Z" transform="translate(-1.08)"/><path class="cls-31" d="M394.08,440c-.65-1.13-1.29-2.27-2.46-4.33l6.74,1.1a5.54,5.54,0,0,1,.1,1c-1.3.27-3.48-.32-2.34,2.38Z" transform="translate(-1.08)"/><path class="cls-31" d="M401.49,444.57l-5.39-4.44Z" transform="translate(-1.08)"/><path class="cls-31" d="M398.41,437.77l4.48,2.14Z" transform="translate(-1.08)"/><path class="cls-24" d="M435.14,466.91l-3.35-1.18Z" transform="translate(-1.08)"/><path class="cls-25" d="M381.9,411l-.77-.92Z" transform="translate(-1.08)"/><path class="cls-25" d="M383,412.06l-.82-.83Z" transform="translate(-1.08)"/><path class="cls-24" d="M431.9,465.82l-1.18-1.12Z" transform="translate(-1.08)"/><path class="cls-32" d="M459.56,408.87l-8.47-3.09-2.93-1.39-.22-.18-.93-.84-.15-.12-1.09-.92,0,0-1.06-1.06h0l-1.06-1.06v0l-1.08-1.06h0l-1.1-1.07h0l-1.34-1-.45,0-.37-.24c-3.76-3.88-4.54-7.63-1.53-8.5,5.85-1.7,6.81-7.26,10.13-10.91,10.91-11.81,15.24-25.69,12.07-41.45-2.41-12-8.88-22-17.14-30.95-1.2-1.3-2.32-2.68-3.47-4-2-4.76.91-7.33,4.33-9.66h0l1.17,1.12c4,3.51,8.62,6.58,11.93,10.68,3,3.75,5,8.5,6.86,13,2.11,5,3.6,10.3,5.42,15.44,3.53,10,2.61,20,.41,30.09-2,9.18-7.37,16.09-13.85,22.42-2,1.49-2.71,3.05-.84,5.29,2.13,2.56,3.52,6,6.11,7.84,4.14,2.9,5,6.82,5.86,11.68Z" transform="translate(-1.08)"/><path class="cls-33" d="M309,320.64c-7.33,10-13.71,20.54-17.7,32.25a95.39,95.39,0,0,0-1.84,56.61c.84,3.11,1.57,6.25,2.24,9.4.59,2.79.65,5.61-2.72,6.66-3.1,1-5.45-.72-6.47-3.43-2.21-5.8-4.79-11.63-5.79-17.69a200,200,0,0,1-2.17-26.13c-.48-14.79,4.47-28.42,10.15-41.74,4.35-10.21,9.75-19.84,18.64-27l1.19-1.15-.07.07c5.77-1.6,8.26.39,7.74,6.16a25.45,25.45,0,0,0,0,2.62l0,0-1.11,1.14.05-.05-1.12,1.14.05-.06Z" transform="translate(-1.08)"/><path class="cls-34" d="M289.6,312c-7.89,7.25-16.9,13.63-23.39,22-8.4,10.77-14.79,23.1-22,34.77-.85,1.36-1.45,3-2.57,4s-3.53,2.73-4.16,2.31c-1.42-.94-3.15-3.23-2.87-4.58,1.08-5.16,2.21-10.52,4.56-15.19,9.61-19.12,21.8-36.31,39.83-48.5,5.71-3.86,12.1-6.73,18.18-10.05l4.19-1.26h-.06c6.33,4.65,6.13,5.18-.64,8.75C296.68,306.32,293.25,309.37,289.6,312Z" transform="translate(-1.08)"/><path class="cls-35" d="M337.06,353.11c-1.49,3.4-3,6.77-4.49,10.18-7.11,16.6-7.58,33.77-2.82,50.82,2.79,10,7.61,19.43,11.52,29.11,2.63,7.67,8.17,13.15,13.92,18.46l3.28,4.23c-.35,0-.7,0-1,0l-1-.09-3.37-2.06h0L352,462.71v0l-1.1-1.09,0,0-1.11-1.09,0,0-1.1-1.1,0,0-1.1-1.1,0,0-1.1-1.1,0,0-1.09-1.11,0,0-1.08-1.11h0l-1-1.13v0l-2.21-3.19v0l-4.34-6.48c-6.52-8.17-10.56-17.64-13.4-27.52-3.61-12.6-5.2-25.55-3.64-38.68S325,352.84,332.63,342c2.32-.09,4,.5,4.34,3.25.24,2.2.76,4.38,1.15,6.57l0-.05Z" transform="translate(-1.08)"/><path class="cls-36" d="M447.87,377.38c-3.32,3.65-4.28,9.21-10.13,10.91-3,.87-2.23,4.62,1.53,8.5-7.67-1.38-10.09-7.2-11.19-13.76-1.34-8-3.61-15.51-9.31-21.59.8-.32,2.05-.42,2.33-1,2.92-6.08,5.68-12.23,8.49-18.36,10.15,10.55,13.53,23.48,13.07,38.12Z" transform="translate(-1.08)"/><path class="cls-37" d="M429.59,342.09c-2.81,6.13-5.57,12.28-8.49,18.36-.28.57-1.53.67-2.33,1h0l-1.42-1-1.87-.46-1.07-.69-1.13-.4-2.1-.66-7.52-1.36c-2.71-1.05-3.82-2.87-2.85-5.76a6.7,6.7,0,0,0,.68-3.09c-.74-3.69,1.52-4.95,4.34-5.9l10.79-.72.2-1.38-18.49-7.71c1.08-1.27,2.64-2.39,3.11-3.85.54-1.73.14-3.76.14-5.66A51.3,51.3,0,0,1,429.59,342.09Z" transform="translate(-1.08)"/><path class="cls-38" d="M289.6,312c3.65-2.62,7.08-5.67,11-7.75,6.77-3.57,7-4.1.64-8.75,4-1.71,7.95-3.75,12.11-5,5.9-1.82,12-3.08,18-4.58l1.24-1h0l6.88-.64,1.87,10.52,0-.07-1.2,1c-8,6-16.06,12-24.06,18.11-1.39,1.05-2.59,2.36-3.88,3.55a25.45,25.45,0,0,1,0-2.62c.52-5.77-2-7.76-7.74-6.16l.8-3.46-.76-1.11Z" transform="translate(-1.08)"/><path class="cls-24" d="M443.66,291.29c-3.42,2.33-6.31,4.9-4.33,9.66-9.78-8.2-21.4-12.53-33.47-15.91-3.3-7.27-1.95-9.67,5.56-9.91l10.64,2.23c6.08,3.54,12.2,7,18.23,10.67A21.12,21.12,0,0,1,443.66,291.29Z" transform="translate(-1.08)"/><path class="cls-39" d="M338.12,351.8c-.39-2.19-.91-4.37-1.15-6.57-.3-2.75-2-3.34-4.34-3.25,6.73-10.29,15.74-17.5,27.8-20.59,6,.24,6,.24,7.22,8.2l-4.8,2.81c-6.42,4.31-13,8.46-19.2,13C341.43,347,339.94,349.64,338.12,351.8Z" transform="translate(-1.08)"/><path class="cls-40" d="M362.85,332.4l4.8-2.81c-1.22-8-1.22-8-7.22-8.2a56.64,56.64,0,0,1,41.16,1.41c0,1.9.4,3.93-.14,5.66-.47,1.46-2,2.58-3.11,3.85a34.38,34.38,0,0,1-5.3-.57c-8.87-2.36-17.68-1.86-26.51.23A31.87,31.87,0,0,1,362.85,332.4Z" transform="translate(-1.08)"/><path class="cls-41" d="M411.42,275.13c-7.51.24-8.86,2.64-5.56,9.91l-38.7.88c2.68-.69,5.35-1.44,8-2,4.69-1.05,6.54-4.92,3.42-8.33-1.21-1.31-4.12-1.06-6.25-1.53A81,81,0,0,1,411.42,275.13Z" transform="translate(-1.08)"/><path class="cls-42" d="M341.35,294.72l-1.87-10.52-6.88.64,16.19-7.47,8.52-1.17c3.51,1.39,4,4.45,4.43,7.69.6,4.52-4.29,2-5.36,4.35Z" transform="translate(-1.08)"/><path class="cls-43" d="M356.38,288.24c1.07-2.32,6,.17,5.36-4.35-.43-3.24-.92-6.3-4.43-7.69L372.38,274c2.13.47,5,.22,6.25,1.53,3.12,3.41,1.27,7.28-3.42,8.33-2.7.6-5.37,1.35-8,2Z" transform="translate(-1.08)"/><path class="cls-44" d="M356.43,465.83l1,.09h1l-3.28-4.23.08-1.24,14.06,11.69c-1.67,2.94-3.87,2.48-5.78,1-2.94-2.23-5.61-4.8-8.4-7.23Z" transform="translate(-1.08)"/><path class="cls-45" d="M355.27,460.44l-.08,1.24c-5.75-5.31-11.29-10.79-13.92-18.46Z" transform="translate(-1.08)"/><path class="cls-45" d="M336.87,444.37l4.34,6.48Z" transform="translate(-1.08)"/><path class="cls-38" d="M301.32,295.49l-4.19,1.26Z" transform="translate(-1.08)"/><path class="cls-45" d="M341.2,450.83l2.21,3.19Z" transform="translate(-1.08)"/><path class="cls-45" d="M356.43,465.83l-1.28.1-2.09-2.16Z" transform="translate(-1.08)"/><path class="cls-25" d="M371.6,428.27l.79,2.15Z" transform="translate(-1.08)"/><path class="cls-25" d="M369.55,424l.79,1.88Z" transform="translate(-1.08)"/><path class="cls-25" d="M372.39,430.41l1,1.4Z" transform="translate(-1.08)"/><path class="cls-38" d="M311.14,318.39l1.11-1.14Z" transform="translate(-1.08)"/><path class="cls-25" d="M373.7,432.54l.89,1.1Z" transform="translate(-1.08)"/><path class="cls-42" d="M332.59,284.84l-1.24,1Z" transform="translate(-1.08)"/><path class="cls-42" d="M340.17,295.63l1.2-1Z" transform="translate(-1.08)"/><path class="cls-38" d="M304.53,308.44l-1.19,1.15Z" transform="translate(-1.08)"/><path class="cls-38" d="M310.07,319.48l1.12-1.14Z" transform="translate(-1.08)"/><path class="cls-38" d="M309,320.64l1.12-1.22Z" transform="translate(-1.08)"/><path class="cls-39" d="M337.06,353.11l1.09-1.36Z" transform="translate(-1.08)"/><path class="cls-45" d="M343.42,454l1,1.13Z" transform="translate(-1.08)"/><path class="cls-45" d="M344.42,455.16l1.08,1.11Z" transform="translate(-1.08)"/><path class="cls-45" d="M345.48,456.25l1.09,1.11Z" transform="translate(-1.08)"/><path class="cls-45" d="M346.55,457.34l1.1,1.1Z" transform="translate(-1.08)"/><path class="cls-45" d="M347.62,458.42l1.1,1.1Z" transform="translate(-1.08)"/><path class="cls-45" d="M348.7,459.49l1.1,1.1Z" transform="translate(-1.08)"/><path class="cls-27" d="M375.59,354.5l-1.09,1.42Z" transform="translate(-1.08)"/><path class="cls-27" d="M374.56,355.84,373.38,357Z" transform="translate(-1.08)"/><path class="cls-45" d="M350.87,461.64l1.1,1.09Z" transform="translate(-1.08)"/><path class="cls-45" d="M352,462.71l1.11,1.07Z" transform="translate(-1.08)"/><path class="cls-45" d="M349.78,460.57l1.11,1.09Z" transform="translate(-1.08)"/><path class="cls-46" d="M459.56,408.87h7.14c-.9-4.86-1.72-8.78-5.86-11.68-2.59-1.81-4-5.28-6.11-7.84-1.87-2.24-1.14-3.8.84-5.29v4.83c15.35-4.2,23.27-14.94,28.45-28.16,1.88-4.79,2.74-10,4-15,1.6-6.47.68-12.69-1.94-18.75-1-2.24-1.67-4.61-2.68-6.84-3-6.6-9-9.22-15.19-11.8-3-1.26-5.6-3.69-8.38-5.58l.66-1.76a28.64,28.64,0,0,1,5,0c13.36,2.44,22.45,10,27,22.88A74.87,74.87,0,0,1,495,363.66c-.94,4.82-4.62,9.1-7.06,13.63-.42.78-.87,1.56-1.31,2.34l-7.52,9.75-16.45,7.3a9.55,9.55,0,0,0,2.27,1.52c9.95,3.54,21.86-.64,28.82-10.06,1.26-1.71,2.47-3.47,3.7-5.21l3.33-4.41,1.64.81a26.74,26.74,0,0,1-.39,5.17c-1,3.53-2.23,7-3.38,10.47-5.3,8.81-14.27,11.82-23.4,13.79C470.25,409.84,464.81,408.9,459.56,408.87Z" transform="translate(-1.08)"/><path class="cls-47" d="M498.66,395c1.15-3.49,2.42-6.94,3.38-10.47a26.74,26.74,0,0,0,.39-5.17l-1.64-.81-3.33,4.41c.74-4.17,1.44-8.35,2.22-12.51.48-2.52,1.07-5,1.69-7.88C508.55,367.63,506.59,385.54,498.66,395Z" transform="translate(-1.08)"/><path class="cls-48" d="M479.12,389.38l7.52-9.75C485.88,384.22,483.72,387.74,479.12,389.38Z" transform="translate(-1.08)"/><path class="cls-36" d="M448.16,404.39l2.93,1.39Z" transform="translate(-1.08)"/><path class="cls-36" d="M411.19,358.23l2.1.66Z" transform="translate(-1.08)"/><path class="cls-36" d="M445.77,402.33l1.09.92Z" transform="translate(-1.08)"/><path class="cls-36" d="M447,403.37l.93.84Z" transform="translate(-1.08)"/><path class="cls-36" d="M441.42,398l1.1,1.07Z" transform="translate(-1.08)"/><path class="cls-36" d="M440.09,397l1.34,1Z" transform="translate(-1.08)"/><path class="cls-36" d="M417.36,360.44l1.42,1Z" transform="translate(-1.08)"/><path class="cls-24" d="M444.8,292.4l-1.17-1.12Z" transform="translate(-1.08)"/><path class="cls-36" d="M414.42,359.29l1.07.69Z" transform="translate(-1.08)"/><path class="cls-36" d="M442.52,399.1l1.08,1.06Z" transform="translate(-1.08)"/><path class="cls-36" d="M443.61,400.18l1.06,1.06Z" transform="translate(-1.08)"/><path class="cls-36" d="M444.69,401.25l1.06,1.06Z" transform="translate(-1.08)"/><path class="cls-49" d="M543.67,441c-33.35-.6-66.7,4-100.06.15l-1.05-8.49c10.37.32,20.74,1,31.1.91,18.62-.12,37.34.37,55.84-1.3,27.57-2.48,55.13-1.52,82.69-1.8a38.65,38.65,0,0,1,8.46,1.11c1,.22,2.61,1.51,2.53,2.12a4.82,4.82,0,0,1-2.14,3.16,10.44,10.44,0,0,1-4.63,1c-19.34.43-38.69.67-58,1.24C553.46,439.18,548.58,440.3,543.67,441Z" transform="translate(-1.08)"/><path class="cls-45" d="M358.47,465.91h-1C357.77,465.9,358.12,465.9,358.47,465.91Z" transform="translate(-1.08)"/></g></g></svg>